<svg width="14" height="14" viewBox="0 0 14 14" fill="none" xmlns="http://www.w3.org/2000/svg">
<path fill-rule="evenodd" clip-rule="evenodd" d="M6.9987 0.333328C3.3168 0.333328 0.332031 3.3181 0.332031 7C0.332031 10.6819 3.3168 13.6667 6.9987 13.6667C10.6806 13.6667 13.6654 10.6819 13.6654 7C13.6654 5.23188 12.963 3.53619 11.7127 2.28595C10.4625 1.03571 8.76681 0.333328 6.9987 0.333328ZM6.9987 12.3333C4.05318 12.3333 1.66536 9.94551 1.66536 6.99999C1.66536 4.05448 4.05318 1.66666 6.9987 1.66666C9.94422 1.66666 12.332 4.05448 12.332 6.99999C12.332 8.41448 11.7701 9.77104 10.7699 10.7712C9.76974 11.7714 8.41319 12.3333 6.9987 12.3333ZM7.66536 6.33333H9.33203C9.51613 6.33333 9.66537 6.48257 9.66537 6.66666V7.33333C9.66537 7.51742 9.51613 7.66666 9.33203 7.66666H7.66536V9.33333C7.66536 9.51742 7.51613 9.66666 7.33203 9.66666H6.66536C6.48127 9.66666 6.33203 9.51742 6.33203 9.33333V7.66666H4.66536C4.48127 7.66666 4.33203 7.51742 4.33203 7.33333V6.66666C4.33203 6.48257 4.48127 6.33333 4.66536 6.33333H6.33203V4.66666C6.33203 4.48257 6.48127 4.33333 6.66536 4.33333H7.33203C7.51613 4.33333 7.66536 4.48257 7.66536 4.66666V6.33333Z" fill="#1E66D2"/>
</svg>
