<svg width="5" height="8" viewBox="0 0 5 8" fill="none" xmlns="http://www.w3.org/2000/svg">
<path d="M4.52076 3.51997C4.61456 3.61365 4.66731 3.74074 4.66743 3.87331V4.12664C4.66589 4.25892 4.61335 4.38549 4.52076 4.47997L1.09409 7.89997C1.03151 7.96308 0.946307 7.99857 0.857427 7.99857C0.768548 7.99857 0.68335 7.96308 0.620761 7.89997L0.147428 7.42664C0.0847182 7.3652 0.0493799 7.2811 0.0493799 7.19331C0.0493799 7.10551 0.0847182 7.02142 0.147428 6.95997L3.11409 3.99997L0.147428 1.03997C0.0843233 0.977384 0.0488281 0.892185 0.0488281 0.803306C0.0488281 0.714427 0.0843233 0.629228 0.147428 0.566639L0.620761 0.0999727C0.68335 0.0368685 0.768548 0.00137329 0.857427 0.00137329C0.946307 0.00137329 1.03151 0.0368685 1.09409 0.0999727L4.52076 3.51997Z" fill="#1E66D2"/>
</svg>
