<svg width="10" height="6" viewBox="0 0 10 6" fill="none" xmlns="http://www.w3.org/2000/svg">
<path d="M9.16707 0.64168C9.01094 0.486471 8.79973 0.399353 8.57957 0.399353C8.35942 0.399353 8.14821 0.486471 7.99207 0.64168L5.0004 3.59168L2.0504 0.64168C1.89427 0.486471 1.68306 0.399353 1.4629 0.399353C1.24275 0.399353 1.03154 0.486471 0.875405 0.64168C0.797298 0.719149 0.735302 0.811317 0.692995 0.912866C0.650688 1.01442 0.628906 1.12334 0.628906 1.23335C0.628906 1.34336 0.650688 1.45228 0.692995 1.55383C0.735302 1.65538 0.797298 1.74754 0.875405 1.82501L4.40874 5.35835C4.48621 5.43645 4.57837 5.49845 4.67992 5.54076C4.78147 5.58306 4.89039 5.60485 5.0004 5.60485C5.11041 5.60485 5.21934 5.58306 5.32089 5.54076C5.42243 5.49845 5.5146 5.43645 5.59207 5.35835L9.16707 1.82501C9.24518 1.74754 9.30717 1.65538 9.34948 1.55383C9.39179 1.45228 9.41357 1.34336 9.41357 1.23335C9.41357 1.12334 9.39179 1.01442 9.34948 0.912866C9.30717 0.811317 9.24518 0.719149 9.16707 0.64168Z" fill="#1E66D2"/>
</svg>
