<svg width="10" height="10" viewBox="0 0 10 10" fill="none" xmlns="http://www.w3.org/2000/svg">
<path d="M9.87325 8.69999C9.95213 8.77822 9.9965 8.88472 9.9965 8.99582C9.9965 9.10692 9.95213 9.21342 9.87325 9.29166L9.28992 9.87499C9.21168 9.95387 9.10518 9.99824 8.99408 9.99824C8.88299 9.99824 8.77649 9.95387 8.69825 9.87499L4.99825 6.17499L1.29825 9.87499C1.22001 9.95387 1.11352 9.99824 1.00242 9.99824C0.891317 9.99824 0.784819 9.95387 0.706583 9.87499L0.123249 9.29166C0.044369 9.21342 0 9.10692 0 8.99582C0 8.88472 0.044369 8.77822 0.123249 8.69999L3.82325 4.99999L0.123249 1.29999C0.044369 1.22175 0 1.11525 0 1.00416C0 0.893057 0.044369 0.786558 0.123249 0.708322L0.706583 0.124989C0.784819 0.0461085 0.891317 0.0017395 1.00242 0.0017395C1.11352 0.0017395 1.22001 0.0461085 1.29825 0.124989L4.99825 3.82499L8.69825 0.124989C8.77649 0.0461085 8.88299 0.0017395 8.99408 0.0017395C9.10518 0.0017395 9.21168 0.0461085 9.28992 0.124989L9.87325 0.708322C9.95213 0.786558 9.9965 0.893057 9.9965 1.00416C9.9965 1.11525 9.95213 1.22175 9.87325 1.29999L6.17325 4.99999L9.87325 8.69999Z" fill="#9DA1A6"/>
</svg>
