<svg width="18" height="18" viewBox="0 0 18 18" fill="none" xmlns="http://www.w3.org/2000/svg">
<path d="M1.5 0C0.671573 0 0 0.671573 0 1.5V4.5C0 5.32843 0.671573 6 1.5 6H6.5C7.32843 6 8 5.32843 8 4.5V1.5C8 0.671573 7.32843 0 6.5 0H1.5Z" fill="#B2B6BB"/>
<path d="M1.5 8C0.671573 8 0 8.67157 0 9.5V16.5C0 17.3284 0.671573 18 1.5 18H6.5C7.32843 18 8 17.3284 8 16.5V9.5C8 8.67157 7.32843 8 6.5 8H1.5Z" fill="#B2B6BB"/>
<path d="M10 1.5C10 0.671573 10.6716 0 11.5 0H16.5C17.3284 0 18 0.671573 18 1.5V8.5C18 9.32843 17.3284 10 16.5 10H11.5C10.6716 10 10 9.32843 10 8.5V1.5Z" fill="#B2B6BB"/>
<path d="M11.5 12C10.6716 12 10 12.6716 10 13.5V16.5C10 17.3284 10.6716 18 11.5 18H16.5C17.3284 18 18 17.3284 18 16.5V13.5C18 12.6716 17.3284 12 16.5 12H11.5Z" fill="#B2B6BB"/>
</svg>
