<svg width="232" height="2" viewBox="0 0 232 2" fill="none" xmlns="http://www.w3.org/2000/svg">
<circle cx="1" cy="1" r="1" fill="#A0C3F2"/>
<circle cx="11" cy="1" r="1" fill="#A0C3F2"/>
<circle cx="21" cy="1" r="1" fill="#A0C3F2"/>
<circle cx="31" cy="1" r="1" fill="#A0C3F2"/>
<circle cx="41" cy="1" r="1" fill="#A0C3F2"/>
<circle cx="51" cy="1" r="1" fill="#A0C3F2"/>
<circle cx="61" cy="1" r="1" fill="#A0C3F2"/>
<circle cx="71" cy="1" r="1" fill="#A0C3F2"/>
<circle cx="81" cy="1" r="1" fill="#A0C3F2"/>
<circle cx="91" cy="1" r="1" fill="#A0C3F2"/>
<circle cx="101" cy="1" r="1" fill="#A0C3F2"/>
<circle cx="111" cy="1" r="1" fill="#A0C3F2"/>
<circle cx="121" cy="1" r="1" fill="#A0C3F2"/>
<circle cx="131" cy="1" r="1" fill="#A0C3F2"/>
<circle cx="141" cy="1" r="1" fill="#A0C3F2"/>
<circle cx="151" cy="1" r="1" fill="#A0C3F2"/>
<circle cx="161" cy="1" r="1" fill="#A0C3F2"/>
<circle cx="171" cy="1" r="1" fill="#A0C3F2"/>
<circle cx="181" cy="1" r="1" fill="#A0C3F2"/>
<circle cx="191" cy="1" r="1" fill="#A0C3F2"/>
<circle cx="201" cy="1" r="1" fill="#A0C3F2"/>
<circle cx="211" cy="1" r="1" fill="#A0C3F2"/>
<circle cx="221" cy="1" r="1" fill="#A0C3F2"/>
<circle cx="231" cy="1" r="1" fill="#A0C3F2"/>
</svg>
