<svg width="16" height="16" viewBox="0 0 16 16" fill="none" xmlns="http://www.w3.org/2000/svg">
<path d="M14.6667 0.5H1.33333C1.11232 0.5 0.900358 0.587797 0.744078 0.744078C0.587797 0.900358 0.5 1.11232 0.5 1.33333V14.6667C0.5 14.8877 0.587797 15.0996 0.744078 15.2559C0.900358 15.4122 1.11232 15.5 1.33333 15.5H8.5125V9.7H6.56417V7.42917H8.5125V5.7625C8.5125 3.825 9.69583 2.76917 11.4292 2.76917C12.0117 2.7675 12.595 2.7975 13.175 2.85833V4.875H11.9792C11.0392 4.875 10.8558 5.32333 10.8558 5.97917V7.425H13.1033L12.8117 9.69583H10.855V15.5H14.6667C14.8877 15.5 15.0996 15.4122 15.2559 15.2559C15.4122 15.0996 15.5 14.8877 15.5 14.6667V1.33333C15.5 1.11232 15.4122 0.900358 15.2559 0.744078C15.0996 0.587797 14.8877 0.5 14.6667 0.5Z" fill="white"/>
</svg>
