<svg width="96" height="28" viewBox="0 0 96 28" fill="none" xmlns="http://www.w3.org/2000/svg">
<path d="M13.1281 14.2528C13.5691 15.4984 12.8761 16.9016 12.4647 17.0552C12.0532 17.2088 10.6454 16.5928 10.2052 15.3472C9.76422 14.1016 10.4751 12.692 10.8687 12.5448C11.2622 12.3968 12.6879 13.0072 13.1281 14.2528Z" fill="white"/>
<path d="M17.7948 15.3472C17.3546 16.5928 15.9468 17.2088 15.5353 17.0552C15.1239 16.9008 14.4309 15.4984 14.8719 14.2528C15.3121 13.0072 16.7378 12.3968 17.1313 12.5448C17.5249 12.692 18.2358 14.1016 17.7948 15.3472Z" fill="white"/>
<path fill-rule="evenodd" clip-rule="evenodd" d="M14 28C21.732 28 28 21.732 28 14C28 6.26801 21.732 0 14 0C6.26801 0 0 6.26801 0 14C0 21.732 6.26801 28 14 28ZM7 13.2C7 17.176 10.5 22 14 22C17.5 22 21 17.176 21 13.2C21 12.2545 20.8189 11.3182 20.4672 10.4447C20.1154 9.57114 19.5998 8.77741 18.9497 8.10883C18.2997 7.44025 17.5281 6.9099 16.6788 6.54807C15.8295 6.18623 14.9193 6 14 6C13.0807 6 12.1705 6.18623 11.3212 6.54807C10.4719 6.9099 9.70026 7.44025 9.05025 8.10883C8.40024 8.77741 7.88463 9.57114 7.53284 10.4447C7.18106 11.3182 7 12.2545 7 13.2Z" fill="white"/>
<path d="M38 20.0488H40.9357V15.4939H43.4035C46.5969 15.4939 48.4545 13.5663 48.4545 10.7607C48.4545 7.96875 46.6308 6 43.4781 6H38V20.0488ZM40.9357 13.1136V8.42835H42.9154C44.6104 8.42835 45.4307 9.36128 45.4307 10.7607C45.4307 12.1532 44.6104 13.1136 42.929 13.1136H40.9357Z" fill="white"/>
<path d="M52.997 20.2477C54.5361 20.2477 55.5327 19.5686 56.0412 18.5877H56.1226V20.0488H58.8616V12.9421C58.8616 10.4314 56.7599 9.375 54.4412 9.375C51.9462 9.375 50.3054 10.5823 49.9054 12.503L52.5767 12.7226C52.7733 12.0229 53.3903 11.5084 54.4276 11.5084C55.4107 11.5084 55.9734 12.0091 55.9734 12.8735V12.9146C55.9734 13.5938 55.2615 13.6829 53.4513 13.8613C51.3902 14.0534 49.5393 14.753 49.5393 17.1059C49.5393 19.1913 51.0105 20.2477 52.997 20.2477ZM53.8242 18.2309C52.936 18.2309 52.2987 17.8125 52.2987 17.0099C52.2987 16.1867 52.9699 15.782 53.9869 15.638C54.6174 15.5488 55.648 15.3979 55.9937 15.1646V16.2828C55.9937 17.3872 55.092 18.2309 53.8242 18.2309Z" fill="white"/>
<path d="M62.5126 23.9794C64.6618 23.9794 65.8076 22.875 66.3907 21.1875L70.4382 9.52592L67.3805 9.5122L65.2042 17.25H65.0957L62.9397 9.5122H59.9023L63.638 20.3506L63.4685 20.7965C63.0617 21.75 62.3634 21.8186 61.3464 21.4962L60.6956 23.6845C61.1091 23.8559 61.7804 23.9794 62.5126 23.9794Z" fill="white"/>
<path d="M80.547 6V14.8697C80.547 16.4748 79.4351 17.6341 77.7266 17.6341C76.0248 17.6341 74.9062 16.4748 74.9062 14.8697V6H71.9705V15.1235C71.9705 18.1966 74.2621 20.2477 77.7266 20.2477C81.1775 20.2477 83.4827 18.1966 83.4827 15.1235V6H80.547Z" fill="white"/>
<path d="M85.8438 24H88.732V18.3613H88.8201C89.2201 19.2393 90.0947 20.2203 91.7761 20.2203C94.1491 20.2203 96 18.3201 96 14.7942C96 11.1723 94.0677 9.375 91.7829 9.375C90.0405 9.375 89.2066 10.4245 88.8201 11.282H88.6913V9.5122H85.8438V24ZM88.671 14.7805C88.671 12.9009 89.4574 11.7005 90.8609 11.7005C92.2914 11.7005 93.0508 12.9558 93.0508 14.7805C93.0508 16.6189 92.2779 17.8948 90.8609 17.8948C89.471 17.8948 88.671 16.6601 88.671 14.7805Z" fill="white"/>
</svg>
