<svg width="24" height="24" viewBox="0 0 24 24" fill="none" xmlns="http://www.w3.org/2000/svg">
<path d="M21.8055 10.0415H21V10H12V14H17.6515C16.827 16.3285 14.6115 18 12 18C8.6865 18 6 15.3135 6 12C6 8.6865 8.6865 6 12 6C13.5295 6 14.921 6.577 15.9805 7.5195L18.809 4.691C17.023 3.0265 14.634 2 12 2C6.4775 2 2 6.4775 2 12C2 17.5225 6.4775 22 12 22C17.5225 22 22 17.5225 22 12C22 11.3295 21.931 10.675 21.8055 10.0415Z" fill="#FFC107"/>
<path d="M3.15292 7.3455L6.43842 9.755C7.32742 7.554 9.48042 6 11.9999 6C13.5294 6 14.9209 6.577 15.9804 7.5195L18.8089 4.691C17.0229 3.0265 14.6339 2 11.9999 2C8.15892 2 4.82792 4.1685 3.15292 7.3455Z" fill="#FF3D00"/>
<path d="M12.0001 22C14.5831 22 16.9301 21.0115 18.7046 19.404L15.6096 16.785C14.5719 17.5742 13.3038 18.001 12.0001 18C9.39909 18 7.19059 16.3415 6.35859 14.027L3.09759 16.5395C4.75259 19.778 8.11359 22 12.0001 22Z" fill="#4CAF50"/>
<path d="M21.8055 10.0415H21V10H12V14H17.6515C17.2571 15.1082 16.5467 16.0766 15.608 16.7855L15.6095 16.7845L18.7045 19.4035C18.4855 19.6025 22 17 22 12C22 11.3295 21.931 10.675 21.8055 10.0415Z" fill="#1976D2"/>
</svg>
