<svg width="8" height="5" viewBox="0 0 8 5" fill="none" xmlns="http://www.w3.org/2000/svg">
<path d="M4.48055 4.51998C4.38687 4.61377 4.25978 4.66653 4.12722 4.66665H3.87389C3.74161 4.66511 3.61503 4.61257 3.52055 4.51998L0.100553 1.09331C0.0374484 1.03072 0.00195312 0.945525 0.00195312 0.856646C0.00195312 0.767766 0.0374484 0.682568 0.100553 0.619979L0.573886 0.146646C0.635328 0.0839362 0.719426 0.0485979 0.807219 0.0485979C0.895012 0.0485979 0.97911 0.0839362 1.04055 0.146646L4.00055 3.11331L6.96055 0.146646C7.02314 0.0835413 7.10834 0.0480461 7.19722 0.0480461C7.2861 0.0480461 7.3713 0.0835413 7.43389 0.146646L7.90055 0.619979C7.96366 0.682568 7.99915 0.767766 7.99915 0.856646C7.99915 0.945525 7.96366 1.03072 7.90055 1.09331L4.48055 4.51998Z" fill="#182049"/>
</svg>
