<svg width="48" height="48" viewBox="0 0 48 48" fill="none" xmlns="http://www.w3.org/2000/svg">
<rect width="48" height="48" rx="24" fill="white"/>
<path d="M20.22 24.7201C20.0793 24.5796 20.0002 24.3889 20 24.1901V23.8101C20.0023 23.6117 20.0811 23.4218 20.22 23.2801L25.36 18.1501C25.4539 18.0554 25.5817 18.0022 25.715 18.0022C25.8483 18.0022 25.9761 18.0554 26.07 18.1501L26.78 18.8601C26.8741 18.9523 26.9271 19.0784 26.9271 19.2101C26.9271 19.3418 26.8741 19.4679 26.78 19.5601L22.33 24.0001L26.78 28.4401C26.8747 28.534 26.9279 28.6618 26.9279 28.7951C26.9279 28.9284 26.8747 29.0562 26.78 29.1501L26.07 29.8501C25.9761 29.9448 25.8483 29.998 25.715 29.998C25.5817 29.998 25.4539 29.9448 25.36 29.8501L20.22 24.7201Z" fill="#888C91"/>
</svg>
