<svg width="16" height="16" viewBox="0 0 16 16" fill="none" xmlns="http://www.w3.org/2000/svg">
<path d="M14.6667 0.5H1.33333C1.11232 0.5 0.900358 0.587797 0.744078 0.744078C0.587797 0.900358 0.5 1.11232 0.5 1.33333V14.6667C0.5 14.8877 0.587797 15.0996 0.744078 15.2559C0.900358 15.4122 1.11232 15.5 1.33333 15.5H14.6667C14.8877 15.5 15.0996 15.4122 15.2559 15.2559C15.4122 15.0996 15.5 14.8877 15.5 14.6667V1.33333C15.5 1.11232 15.4122 0.900358 15.2559 0.744078C15.0996 0.587797 14.8877 0.5 14.6667 0.5ZM4.94917 13.2808H2.7225V6.1225H4.94917V13.2808ZM3.83583 5.145C3.4937 5.145 3.16559 5.00909 2.92367 4.76717C2.68174 4.52525 2.54583 4.19713 2.54583 3.855C2.54583 3.51287 2.68174 3.18475 2.92367 2.94283C3.16559 2.70091 3.4937 2.565 3.83583 2.565C4.17796 2.565 4.50608 2.70091 4.748 2.94283C4.98992 3.18475 5.12583 3.51287 5.12583 3.855C5.12583 4.19713 4.98992 4.52525 4.748 4.76717C4.50608 5.00909 4.17796 5.145 3.83583 5.145ZM13.2817 13.2808H11.0575V9.8C11.0575 8.97 11.0425 7.9025 9.90083 7.9025C8.7425 7.9025 8.56667 8.8075 8.56667 9.74167V13.2817H6.34417V6.12333H8.4775V7.10167H8.50833C8.80417 6.53917 9.53083 5.94583 10.6117 5.94583C12.865 5.94583 13.2808 7.4275 13.2808 9.35583V13.2808H13.2817Z" fill="white"/>
</svg>
