<svg width="240" height="180" viewBox="0 0 240 180" fill="none" xmlns="http://www.w3.org/2000/svg">
<g clip-path="url(#clip0)">
<path d="M35 70.8062C35 67.7684 36.3809 64.8953 38.753 62.9976L113.753 2.99756C117.405 0.0758088 122.595 0.0758045 126.247 2.99755L201.247 62.9976C203.619 64.8953 205 67.7684 205 70.8062V170C205 175.523 200.523 180 195 180H45C39.4772 180 35 175.523 35 170V70.8062Z" fill="url(#paint0_linear)"/>
<path d="M53 29C53 26.2386 55.2386 24 58 24H182C184.761 24 187 26.2386 187 29V134H53V29Z" fill="#EFF4FB"/>
<path d="M73 46C73 44.8954 73.8954 44 75 44H127C128.105 44 129 44.8954 129 46C129 47.1046 128.105 48 127 48H75C73.8954 48 73 47.1046 73 46Z" fill="#C0D3ED"/>
<path d="M73 56C73 54.8954 73.8954 54 75 54H95C96.1046 54 97 54.8954 97 56C97 57.1046 96.1046 58 95 58H75C73.8954 58 73 57.1046 73 56Z" fill="#C0D3ED"/>
<path d="M101 56C101 54.8954 101.895 54 103 54H143C144.105 54 145 54.8954 145 56C145 57.1046 144.105 58 143 58H103C101.895 58 101 57.1046 101 56Z" fill="#C0D3ED"/>
<path d="M149 56C149 54.8954 149.895 54 151 54H165C166.105 54 167 54.8954 167 56C167 57.1046 166.105 58 165 58H151C149.895 58 149 57.1046 149 56Z" fill="#C0D3ED"/>
<path d="M73 66C73 64.8954 73.8954 64 75 64H115C116.105 64 117 64.8954 117 66C117 67.1046 116.105 68 115 68H75C73.8954 68 73 67.1046 73 66Z" fill="#C0D3ED"/>
<path d="M121 66C121 64.8954 121.895 64 123 64H165C166.105 64 167 64.8954 167 66C167 67.1046 166.105 68 165 68H123C121.895 68 121 67.1046 121 66Z" fill="#C0D3ED"/>
<path d="M73 76C73 74.8954 73.8954 74 75 74H103C104.105 74 105 74.8954 105 76C105 77.1046 104.105 78 103 78H75C73.8954 78 73 77.1046 73 76Z" fill="#C0D3ED"/>
<path d="M73 86C73 84.8954 73.8954 84 75 84H126C127.105 84 128 84.8954 128 86C128 87.1046 127.105 88 126 88H75C73.8954 88 73 87.1046 73 86Z" fill="#C0D3ED"/>
<path d="M132 86C132 84.8954 132.895 84 134 84H165C166.105 84 167 84.8954 167 86C167 87.1046 166.105 88 165 88H134C132.895 88 132 87.1046 132 86Z" fill="#C0D3ED"/>
<path d="M109 76C109 74.8954 109.895 74 111 74H153C154.105 74 155 74.8954 155 76C155 77.1046 154.105 78 153 78H111C109.895 78 109 77.1046 109 76Z" fill="#C0D3ED"/>
<path d="M73 96C73 94.8954 73.8954 94 75 94H95C96.1046 94 97 94.8954 97 96C97 97.1046 96.1046 98 95 98H75C73.8954 98 73 97.1046 73 96Z" fill="#C0D3ED"/>
<path d="M101 96C101 94.8954 101.895 94 103 94H143C144.105 94 145 94.8954 145 96C145 97.1046 144.105 98 143 98H103C101.895 98 101 97.1046 101 96Z" fill="#C0D3ED"/>
<path d="M149 96C149 94.8954 149.895 94 151 94H165C166.105 94 167 94.8954 167 96C167 97.1046 166.105 98 165 98H151C149.895 98 149 97.1046 149 96Z" fill="#C0D3ED"/>
<path d="M36.2307 66C35.4331 67.4555 35 69.1051 35 70.8063V169C35 174.523 39.4771 179 45 179H195C200.523 179 205 174.523 205 169V70.8063C205 69.1051 204.567 67.4555 203.769 66C198.5 65.5 191.996 65.3047 187.5 69L120 123.5L52.5 69C47.9919 65.2947 41.5 65.5 36.2307 66Z" fill="#2082AC"/>
<path d="M36.2307 66C35.4331 67.4555 35 69.1051 35 70.8063V170C35 175.523 39.4771 180 45 180H195C200.523 180 205 175.523 205 170V70.8063C205 69.1051 204.567 67.4555 203.769 66H200.164C195.532 66 191.044 67.6079 187.465 70.5492L120 126L52.5348 70.5492C48.9563 67.6079 44.4677 66 39.8355 66H36.2307Z" fill="url(#paint1_linear)"/>
<path d="M35 168L114.107 108.298C117.618 105.737 122.382 105.737 125.893 108.298L205 168V170C205 175.523 200.523 180 195 180H45C39.4772 180 35 175.523 35 170V168Z" fill="#2082AC"/>
<path d="M35 168L114.107 110.298C117.618 107.737 122.382 107.737 125.893 110.298L205 168V170C205 175.523 200.523 180 195 180H45C39.4772 180 35 175.523 35 170V168Z" fill="#45CCDE"/>
<path d="M15.3564 62.7127C14.4962 62.7127 13.6359 62.0983 13.5131 61.2381C12.7757 58.043 11.7926 56.937 8.47466 56.1997C7.61444 55.9539 7 55.2166 7 54.3564C7 53.4962 7.61444 52.6359 8.47466 52.5131C11.6697 51.7757 12.7757 50.7926 13.5131 47.4746C13.7588 46.6144 14.4962 46 15.3564 46C16.2166 46 17.0768 46.6144 17.1997 47.4746C17.937 50.6697 18.9201 51.7757 22.2381 52.5131C23.0983 52.7588 23.7127 53.4962 23.7127 54.3564C23.7127 55.2166 23.0983 56.0768 22.2381 56.1997C19.043 56.937 17.937 57.9201 17.1997 61.2381C17.0768 62.0983 16.2166 62.7127 15.3564 62.7127ZM10.318 54.3564C13.0215 55.2166 14.4962 56.6912 15.3564 59.3948C16.2166 56.6912 17.6912 55.2166 20.3948 54.3564C17.6912 53.4962 16.2166 52.0215 15.3564 49.318C14.4962 52.0215 13.0215 53.4962 10.318 54.3564Z" fill="#5D95E4"/>
<path d="M219.5 140C218.831 140 218.162 139.522 218.066 138.853C217.493 136.368 216.728 135.507 214.147 134.934C213.478 134.743 213 134.169 213 133.5C213 132.831 213.478 132.162 214.147 132.066C216.632 131.493 217.493 130.728 218.066 128.147C218.257 127.478 218.831 127 219.5 127C220.169 127 220.838 127.478 220.934 128.147C221.507 130.632 222.272 131.493 224.853 132.066C225.522 132.257 226 132.831 226 133.5C226 134.169 225.522 134.838 224.853 134.934C222.368 135.507 221.507 136.272 220.934 138.853C220.838 139.522 220.169 140 219.5 140ZM215.581 133.5C217.684 134.169 218.831 135.316 219.5 137.419C220.169 135.316 221.316 134.169 223.419 133.5C221.316 132.831 220.169 131.684 219.5 129.581C218.831 131.684 217.684 132.831 215.581 133.5Z" fill="#6AD9E8"/>
<path d="M209.022 32.043C205.704 32.043 203 29.3395 203 26.0215C203 22.7035 205.704 20 209.022 20C212.339 20 215.043 22.7035 215.043 26.0215C215.043 29.3395 212.339 32.043 209.022 32.043ZM209.022 22.3349C207.055 22.3349 205.335 23.9324 205.335 26.0215C205.335 27.9877 206.932 29.7081 209.022 29.7081C210.988 29.7081 212.708 28.1106 212.708 26.0215C212.708 23.9324 210.988 22.3349 209.022 22.3349Z" fill="#DAE7F6"/>
<path d="M65.6363 12.2842C65.0218 12.2842 64.5303 11.7926 64.5303 11.1782V8.10599C64.5303 7.49155 65.0218 7 65.6363 7C66.2507 7 66.7423 7.49155 66.7423 8.10599V11.1782C66.7423 11.7926 66.2507 12.2842 65.6363 12.2842Z" fill="#6AD9E8"/>
<path d="M231 82C230.444 82 230 81.6279 230 81.1628V78.8372C230 78.3721 230.444 78 231 78C231.556 78 232 78.3721 232 78.8372V81.1628C232 81.6279 231.556 82 231 82Z" fill="#A0C3F2"/>
<path d="M65.6363 20.3948C65.0218 20.3948 64.5303 19.9032 64.5303 19.2888V16.2166C64.5303 15.6022 65.0218 15.1106 65.6363 15.1106C66.2507 15.1106 66.7423 15.6022 66.7423 16.2166V19.2888C66.7423 19.9032 66.2507 20.3948 65.6363 20.3948Z" fill="#6AD9E8"/>
<path d="M231 88C230.444 88 230 87.6279 230 87.1628V84.8372C230 84.3721 230.444 84 231 84C231.556 84 232 84.3721 232 84.8372V87.1628C232 87.6279 231.556 88 231 88Z" fill="#A0C3F2"/>
<path d="M63.1782 14.619H60.106C59.4915 14.619 59 14.1275 59 13.5131C59 12.8986 59.4915 12.4071 60.106 12.4071H63.1782C63.7926 12.4071 64.2842 12.8986 64.2842 13.5131C64.4071 14.0046 63.7926 14.619 63.1782 14.619Z" fill="#6AD9E8"/>
<path d="M229.153 84H226.835C226.371 84 226 83.5556 226 83C226 82.4444 226.371 82 226.835 82H229.153C229.617 82 229.988 82.4444 229.988 83C230.081 83.4444 229.617 84 229.153 84Z" fill="#A0C3F2"/>
<path d="M71.0434 14.619H67.9712C67.3568 14.619 66.8652 14.1275 66.8652 13.5131C66.8652 12.8986 67.3568 12.4071 67.9712 12.4071H71.0434C71.6579 12.4071 72.1494 12.8986 72.1494 13.5131C72.1494 14.0046 71.6579 14.619 71.0434 14.619Z" fill="#6AD9E8"/>
<path d="M235.163 84H232.837C232.372 84 232 83.5556 232 83C232 82.4444 232.372 82 232.837 82H235.163C235.628 82 236 82.4444 236 83C236 83.4444 235.628 84 235.163 84Z" fill="#A0C3F2"/>
<path d="M19.6363 105.284C19.0218 105.284 18.5303 104.793 18.5303 104.178V101.106C18.5303 100.492 19.0218 100 19.6363 100C20.2507 100 20.7423 100.492 20.7423 101.106V104.178C20.7423 104.67 20.2507 105.284 19.6363 105.284Z" fill="#A8ECF4"/>
<path d="M19.6363 113.395C19.0218 113.395 18.5303 112.903 18.5303 112.289V109.217C18.5303 108.602 19.0218 108.111 19.6363 108.111C20.2507 108.111 20.7423 108.602 20.7423 109.217V112.289C20.7423 112.903 20.2507 113.395 19.6363 113.395Z" fill="#A8ECF4"/>
<path d="M17.1782 107.496H14.106C13.4916 107.496 13 107.005 13 106.39C13 105.776 13.4916 105.284 14.106 105.284H17.1782C17.7926 105.284 18.2842 105.776 18.2842 106.39C18.4071 107.005 17.7926 107.496 17.1782 107.496Z" fill="#A8ECF4"/>
<path d="M25.0424 107.496H21.9702C21.3558 107.496 20.8643 107.005 20.8643 106.39C20.8643 105.776 21.3558 105.284 21.9702 105.284H25.0424C25.6569 105.284 26.1484 105.776 26.1484 106.39C26.1484 107.005 25.6569 107.496 25.0424 107.496Z" fill="#A8ECF4"/>
<circle cx="228" cy="63" r="2" fill="#A0C3F2"/>
<circle cx="26" cy="132" r="2" fill="#6AD9E8"/>
</g>
<defs>
<linearGradient id="paint0_linear" x1="120" y1="0.806244" x2="120" y2="180" gradientUnits="userSpaceOnUse">
<stop stop-color="#30C3D9"/>
<stop offset="1" stop-color="#6AD9E8"/>
</linearGradient>
<linearGradient id="paint1_linear" x1="120" y1="66" x2="120" y2="180" gradientUnits="userSpaceOnUse">
<stop stop-color="#6AD9E8"/>
<stop offset="1" stop-color="#59D3E4"/>
</linearGradient>
<clipPath id="clip0">
<rect width="240" height="180" fill="white"/>
</clipPath>
</defs>
</svg>
