<svg width="32" height="32" viewBox="0 0 32 32" fill="none" xmlns="http://www.w3.org/2000/svg">
<path d="M10 26C8.02219 26 6.08879 25.4135 4.4443 24.3147C2.79981 23.2159 1.51809 21.6541 0.761209 19.8268C0.00433285 17.9996 -0.1937 15.9889 0.192152 14.0491C0.578004 12.1093 1.53041 10.3275 2.92894 8.92894C4.32746 7.53041 6.10929 6.578 8.0491 6.19215C9.98891 5.8063 11.9996 6.00433 13.8268 6.76121C15.6541 7.51809 17.2159 8.79981 18.3147 10.4443C19.4135 12.0888 20 14.0222 20 16C19.9972 18.6513 18.9428 21.1933 17.068 23.068C15.1933 24.9428 12.6513 25.9972 10 26Z" fill="#EB001B"/>
<path d="M22.0015 26C20.0237 26.0003 18.0902 25.4141 16.4455 24.3155C14.8009 23.217 13.5189 21.6554 12.7618 19.8282C12.0046 18.0011 11.8063 15.9904 12.1919 14.0506C12.5774 12.1107 13.5296 10.3287 14.9279 8.92999C16.3262 7.53125 18.1079 6.57858 20.0476 6.19244C21.9874 5.8063 23.9981 6.00404 25.8255 6.76064C27.6528 7.51724 29.2148 8.79874 30.3139 10.4431C31.4129 12.0874 31.9997 14.0207 32 15.9985V16C31.9972 18.6511 30.943 21.1928 29.0686 23.0675C27.1941 24.9422 24.6525 25.9969 22.0015 26Z" fill="#F79E1B"/>
<path d="M16 8C16.8994 8.67455 17.6834 9.49957 18.3147 10.4443C19.4135 12.0888 20 14.0222 20 16C19.9972 18.6513 18.9428 21.1933 17.068 23.068C16.7313 23.4047 16.3731 23.715 15.9966 23.9974C14.5672 22.9244 13.4486 21.4856 12.7618 19.8282C12.0046 18.0011 11.8063 15.9904 12.1919 14.0506C12.5774 12.1107 13.5296 10.3287 14.9279 8.92999C15.2641 8.59364 15.6225 8.28309 16 8Z" fill="#FF5F00"/>
</svg>
