<svg width="5" height="8" viewBox="0 0 5 8" fill="none" xmlns="http://www.w3.org/2000/svg">
<path d="M4.51881 3.51997C4.6126 3.61365 4.66536 3.74074 4.66547 3.87331V4.12664C4.66394 4.25892 4.6114 4.38549 4.51881 4.47997L1.09214 7.89997C1.02955 7.96308 0.944354 7.99857 0.855474 7.99857C0.766595 7.99857 0.681397 7.96308 0.618808 7.89997L0.145474 7.42664C0.0827651 7.3652 0.0474268 7.2811 0.0474268 7.19331C0.0474268 7.10551 0.0827651 7.02142 0.145474 6.95997L3.11214 3.99997L0.145474 1.03997C0.0823702 0.977384 0.046875 0.892185 0.046875 0.803306C0.046875 0.714427 0.0823702 0.629228 0.145474 0.566639L0.618808 0.0999727C0.681397 0.0368685 0.766595 0.00137329 0.855474 0.00137329C0.944354 0.00137329 1.02955 0.0368685 1.09214 0.0999727L4.51881 3.51997Z" fill="#1E66D2"/>
</svg>
