<svg width="36" height="36" viewBox="0 0 36 36" fill="none" xmlns="http://www.w3.org/2000/svg">
<rect width="36" height="36" rx="18" fill="#1E66D2"/>
<path d="M15.4807 18.48C15.3869 18.3864 15.3341 18.2593 15.334 18.1267V17.8734C15.3355 17.7411 15.3881 17.6145 15.4807 17.52L18.9073 14.1C18.9699 14.0369 19.0551 14.0014 19.144 14.0014C19.2329 14.0014 19.3181 14.0369 19.3807 14.1L19.854 14.5734C19.9167 14.6348 19.952 14.7189 19.952 14.8067C19.952 14.8945 19.9167 14.9786 19.854 15.04L16.8873 18L19.854 20.96C19.9171 21.0226 19.9526 21.1078 19.9526 21.1967C19.9526 21.2856 19.9171 21.3708 19.854 21.4334L19.3807 21.9C19.3181 21.9632 19.2329 21.9986 19.144 21.9986C19.0551 21.9986 18.9699 21.9632 18.9073 21.9L15.4807 18.48Z" fill="white"/>
</svg>
