<svg width="17" height="18" viewBox="0 0 17 18" fill="none" xmlns="http://www.w3.org/2000/svg">
<path d="M15.5831 9.55002C15.4495 9.39794 15.3758 9.20244 15.3758 9.00002C15.3758 8.79759 15.4495 8.60209 15.5831 8.45002L16.6498 7.25002C16.7673 7.11891 16.8403 6.95394 16.8582 6.77877C16.8762 6.60361 16.8382 6.42726 16.7498 6.27502L15.0831 3.39168C14.9955 3.23962 14.8622 3.11908 14.702 3.04726C14.5419 2.97543 14.3632 2.95598 14.1914 2.99168L12.6248 3.30835C12.4254 3.34954 12.2179 3.31634 12.0413 3.21502C11.8648 3.11369 11.7314 2.95125 11.6664 2.75835L11.1581 1.23335C11.1022 1.06783 10.9957 0.924071 10.8536 0.822385C10.7115 0.720699 10.5411 0.666233 10.3664 0.666684H7.03308C6.85136 0.657198 6.67153 0.707456 6.52105 0.809779C6.37058 0.912102 6.25773 1.06087 6.19975 1.23335L5.73308 2.75835C5.66808 2.95125 5.53473 3.11369 5.35818 3.21502C5.18163 3.31634 4.9741 3.34954 4.77475 3.30835L3.16642 2.99168C3.00354 2.96867 2.8375 2.99437 2.68921 3.06555C2.54091 3.13673 2.417 3.25021 2.33308 3.39168L0.666417 6.27502C0.575718 6.42556 0.534936 6.60092 0.549903 6.77604C0.56487 6.95115 0.634819 7.11705 0.749751 7.25002L1.80808 8.45002C1.94168 8.60209 2.01536 8.79759 2.01536 9.00002C2.01536 9.20244 1.94168 9.39794 1.80808 9.55002L0.749751 10.75C0.634819 10.883 0.56487 11.0489 0.549903 11.224C0.534936 11.3991 0.575718 11.5745 0.666417 11.725L2.33308 14.6084C2.42067 14.7604 2.55402 14.881 2.71413 14.9528C2.87424 15.0246 3.05294 15.0441 3.22475 15.0084L4.79142 14.6917C4.99077 14.6505 5.1983 14.6837 5.37484 14.785C5.55139 14.8863 5.68475 15.0488 5.74975 15.2417L6.25808 16.7667C6.31607 16.9392 6.42891 17.0879 6.57939 17.1903C6.72986 17.2926 6.9097 17.3428 7.09142 17.3334H10.4248C10.5995 17.3338 10.7699 17.2793 10.9119 17.1776C11.054 17.076 11.1605 16.9322 11.2164 16.7667L11.7248 15.2417C11.7898 15.0488 11.9231 14.8863 12.0997 14.785C12.2762 14.6837 12.4837 14.6505 12.6831 14.6917L14.2498 15.0084C14.4216 15.0441 14.6003 15.0246 14.7604 14.9528C14.9205 14.881 15.0538 14.7604 15.1414 14.6084L16.8081 11.725C16.8966 11.5728 16.9345 11.3964 16.9166 11.2213C16.8986 11.0461 16.8256 10.8811 16.7081 10.75L15.5831 9.55002ZM14.3414 10.6667L15.0081 11.4167L13.9414 13.2667L12.9581 13.0667C12.3579 12.944 11.7336 13.0459 11.2036 13.3532C10.6736 13.6604 10.2749 14.1516 10.0831 14.7333L9.76642 15.6667H7.63308L7.33308 14.7167C7.1413 14.1349 6.74257 13.6438 6.21259 13.3365C5.68261 13.0293 5.05827 12.9273 4.45808 13.05L3.47475 13.25L2.39142 11.4084L3.05808 10.6583C3.46805 10.2 3.69469 9.60663 3.69469 8.99168C3.69469 8.37674 3.46805 7.78337 3.05808 7.32502L2.39142 6.57502L3.45808 4.74168L4.44142 4.94168C5.0416 5.06437 5.66594 4.96242 6.19592 4.65518C6.7259 4.34795 7.12463 3.85682 7.31642 3.27502L7.63308 2.33335H9.76642L10.0831 3.28335C10.2749 3.86515 10.6736 4.35628 11.2036 4.66352C11.7336 4.97075 12.3579 5.0727 12.9581 4.95002L13.9414 4.75002L15.0081 6.60002L14.3414 7.35002C13.9361 7.80732 13.7122 8.39725 13.7122 9.00835C13.7122 9.61945 13.9361 10.2094 14.3414 10.6667ZM8.69975 5.66668C8.04048 5.66668 7.39601 5.86218 6.84785 6.22845C6.29969 6.59472 5.87244 7.11532 5.62015 7.72441C5.36786 8.33349 5.30185 9.00371 5.43047 9.65032C5.55908 10.2969 5.87655 10.8909 6.34273 11.357C6.8089 11.8232 7.40285 12.1407 8.04945 12.2693C8.69605 12.3979 9.36627 12.3319 9.97536 12.0796C10.5844 11.8273 11.105 11.4001 11.4713 10.8519C11.8376 10.3038 12.0331 9.65929 12.0331 9.00002C12.0331 8.11596 11.6819 7.26812 11.0568 6.64299C10.4317 6.01787 9.58381 5.66668 8.69975 5.66668ZM8.69975 10.6667C8.37012 10.6667 8.04788 10.5689 7.7738 10.3858C7.49972 10.2027 7.2861 9.94237 7.15995 9.63782C7.03381 9.33328 7.0008 8.99817 7.06511 8.67487C7.12942 8.35156 7.28815 8.05459 7.52124 7.82151C7.75433 7.58842 8.0513 7.42968 8.3746 7.36538C8.6979 7.30107 9.03301 7.33407 9.33756 7.46022C9.6421 7.58636 9.9024 7.79998 10.0855 8.07407C10.2687 8.34815 10.3664 8.67038 10.3664 9.00002C10.3664 9.44205 10.1908 9.86597 9.87826 10.1785C9.5657 10.4911 9.14178 10.6667 8.69975 10.6667Z" fill="#888C91"/>
</svg>
