<svg width="16" height="16" viewBox="0 0 16 16" fill="none" xmlns="http://www.w3.org/2000/svg">
<path fill-rule="evenodd" clip-rule="evenodd" d="M2.16667 13.8333H6.75C6.98012 13.8333 7.16667 14.0199 7.16667 14.25V15.0833C7.16667 15.3135 6.98012 15.5 6.75 15.5H2.16667C1.24619 15.5 0.5 14.7538 0.5 13.8333V2.16667C0.5 1.24619 1.24619 0.5 2.16667 0.5H6.75C6.98012 0.5 7.16667 0.686548 7.16667 0.916667V1.75C7.16667 1.98012 6.98012 2.16667 6.75 2.16667H2.16667V13.8333ZM11.0334 3.12502L15.3168 7.40002C15.4325 7.51812 15.4982 7.67634 15.5001 7.84169V8.15836C15.4999 8.32406 15.434 8.48292 15.3168 8.60002L11.0334 12.875C10.9552 12.9539 10.8487 12.9983 10.7376 12.9983C10.6265 12.9983 10.52 12.9539 10.4418 12.875L9.85009 12.2917C9.77121 12.2135 9.72684 12.107 9.72684 11.9959C9.72684 11.8848 9.77121 11.7783 9.85009 11.7L12.7251 8.83336H4.25009C4.01997 8.83336 3.83342 8.64681 3.83342 8.41669V7.58336C3.83342 7.35324 4.01997 7.16669 4.25009 7.16669H12.7251L9.85009 4.30002C9.7717 4.22322 9.72753 4.1181 9.72753 4.00836C9.72753 3.89861 9.7717 3.79349 9.85009 3.71669L10.4418 3.12502C10.52 3.04614 10.6265 3.00177 10.7376 3.00177C10.8487 3.00177 10.9552 3.04614 11.0334 3.12502Z" fill="#888C91"/>
</svg>
