<svg width="18" height="14" viewBox="0 0 18 14" fill="none" xmlns="http://www.w3.org/2000/svg">
<path d="M15.3608 3.66412C15.3716 3.80995 15.3716 3.95496 15.3716 4.09996C15.3716 8.53745 11.9941 13.6508 5.82163 13.6508C3.91996 13.6508 2.15329 13.1 0.666626 12.1433C0.936626 12.1741 1.19663 12.185 1.47746 12.185C2.98829 12.1886 4.45633 11.6834 5.64496 10.7508C4.94448 10.7381 4.26544 10.507 3.70266 10.0897C3.13988 9.67247 2.72145 9.08987 2.50579 8.42329C2.71329 8.45412 2.92163 8.47496 3.13996 8.47496C3.44079 8.47496 3.74329 8.43329 4.02413 8.36079C3.26393 8.2073 2.58035 7.79525 2.08964 7.19469C1.59893 6.59414 1.33137 5.84216 1.33246 5.06662V5.02495C1.77996 5.27412 2.29913 5.42995 2.84913 5.45079C2.38837 5.14461 2.01056 4.72914 1.74941 4.24145C1.48826 3.75375 1.35189 3.209 1.35246 2.65579C1.35246 2.03245 1.51829 1.46079 1.80913 0.962455C2.65257 1.99997 3.70455 2.84876 4.89691 3.45384C6.08927 4.05892 7.39543 4.4068 8.73079 4.47496C8.67913 4.22495 8.64746 3.96579 8.64746 3.70579C8.64724 3.26492 8.73391 2.82834 8.90252 2.42099C9.07113 2.01364 9.31838 1.64352 9.63012 1.33178C9.94185 1.02004 10.312 0.772797 10.7193 0.604186C11.1267 0.435576 11.5633 0.348902 12.0041 0.349122C12.9708 0.349122 13.8433 0.754121 14.4566 1.40912C15.2081 1.2638 15.9287 0.989473 16.5866 0.598288C16.3361 1.37397 15.8114 2.03171 15.1108 2.44829C15.7773 2.37227 16.4287 2.197 17.0433 1.92829C16.5842 2.59754 16.0154 3.18441 15.3608 3.66412Z" fill="white"/>
</svg>
