<svg width="48" height="48" viewBox="0 0 48 48" fill="none" xmlns="http://www.w3.org/2000/svg">
<path d="M29.1428 38.5714C29.1428 42.3585 26.0728 45.4286 22.2857 45.4286C18.4986 45.4286 15.4286 42.3585 15.4286 38.5714C15.4286 34.7843 18.4986 31.7143 22.2857 31.7143C26.0728 31.7143 29.1428 34.7843 29.1428 38.5714Z" fill="#6AD9E8"/>
<path d="M32.4874 6.60493L31.0027 5.74779C30.5928 5.51109 30.0686 5.65156 29.8319 6.06152C29.5952 6.47149 29.0709 6.61195 28.661 6.37526C28.251 6.13856 27.7268 6.27903 27.4901 6.68899L26.633 8.17361C26.3963 8.58357 26.5367 9.10779 26.9467 9.34449C27.3567 9.58118 27.8809 9.44072 28.1176 9.03075L28.6193 8.16173C29.3812 8.3034 30.1722 8.09144 30.7612 7.58781L31.6302 8.08954C32.0402 8.32624 32.5644 8.18577 32.8011 7.77581C33.0378 7.36584 32.8973 6.84162 32.4874 6.60493Z" fill="#1E66D2"/>
<path d="M38.4258 10.0335C38.8358 10.2702 38.9763 10.7944 38.7396 11.2044C38.5029 11.6144 38.6433 12.1386 39.0533 12.3753C39.4633 12.612 39.6037 13.1362 39.367 13.5462L38.5099 15.0308C38.2732 15.4407 37.749 15.5812 37.339 15.3445C36.929 15.1078 36.7886 14.5836 37.0253 14.1736L37.527 13.3046C37.0234 12.7156 36.8114 11.9246 36.9531 11.1627L36.0841 10.661C35.6741 10.4243 35.5336 9.90008 35.7703 9.49012C36.007 9.08015 36.5312 8.93969 36.9412 9.17638L38.4258 10.0335Z" fill="#1E66D2"/>
<path d="M21.4286 37.2857C21.4286 37.049 21.6204 36.8571 21.8571 36.8571H22.3182C22.7274 36.8571 23.1311 36.9524 23.4972 37.1355L23.6167 37.1952C24.0401 37.4069 24.5549 37.2353 24.7666 36.8119C24.9783 36.3885 24.8067 35.8736 24.3833 35.6619L24.2638 35.6022C23.9081 35.4243 23.5308 35.2966 23.1428 35.2217V35.1429C23.1428 34.6695 22.7591 34.2857 22.2857 34.2857C21.8123 34.2857 21.4286 34.6695 21.4286 35.1429V35.1857C20.4505 35.3843 19.7143 36.249 19.7143 37.2857C19.7143 38.4692 20.6737 39.4286 21.8571 39.4286H22.7143C22.951 39.4286 23.1428 39.6204 23.1428 39.8571C23.1428 40.0938 22.951 40.2857 22.7143 40.2857H22.101C21.7919 40.2857 21.487 40.2137 21.2104 40.0755L20.9547 39.9476C20.5313 39.7359 20.0165 39.9075 19.8048 40.331C19.5931 40.7544 19.7647 41.2692 20.1881 41.4809L20.4438 41.6088C20.7559 41.7649 21.0875 41.8755 21.4286 41.9385V42C21.4286 42.4734 21.8123 42.8571 22.2857 42.8571C22.7591 42.8571 23.1428 42.4734 23.1428 42V41.9571C24.1209 41.7586 24.8571 40.8938 24.8571 39.8571C24.8571 38.6737 23.8977 37.7143 22.7143 37.7143H21.8571C21.6204 37.7143 21.4286 37.5224 21.4286 37.2857Z" fill="#1E66D2"/>
<path fill-rule="evenodd" clip-rule="evenodd" d="M10.2857 1.71429C8.39215 1.71429 6.85713 3.24931 6.85713 5.14286V16.2857C4.96358 16.2857 3.42856 17.8207 3.42856 19.7143V40.2857C3.42856 42.1793 4.96358 43.7143 6.85713 43.7143H16.5357C17.9483 45.2925 20.001 46.2857 22.2857 46.2857C24.5704 46.2857 26.6231 45.2925 28.0357 43.7143H37.7143C39.6078 43.7143 41.1428 42.1793 41.1428 40.2857V34.2857C43.0364 34.2857 44.5714 32.7507 44.5714 30.8571V29.1429C44.5714 27.2493 43.0364 25.7143 41.1428 25.7143V19.7143C41.1428 18.7792 40.7685 17.9315 40.1615 17.313L42.4511 13.3473C43.3979 11.7074 42.836 9.61051 41.1961 8.66374L30.8038 2.66374C29.164 1.71697 27.0671 2.27882 26.1203 3.91868L25.6828 4.67647C25.4553 3.00354 24.0211 1.71429 22.2857 1.71429H10.2857ZM40.9665 12.4901L38.6932 16.4275C38.383 16.3353 38.0544 16.2857 37.7143 16.2857H33.9594C33.6775 14.9678 32.9283 13.7877 31.7143 13.0868C29.1335 11.5968 25.8408 12.9742 24.2604 15.7115C24.1514 15.9003 24.0522 16.092 23.9629 16.2857H20.9597L27.6049 4.77583C28.0783 3.9559 29.1268 3.67497 29.9467 4.14836L40.339 10.1484C41.1589 10.6217 41.4399 11.6702 40.9665 12.4901ZM25.9198 16.2857C27.2114 14.3278 29.4059 13.7336 30.8571 14.5714C31.4888 14.9361 31.9502 15.538 32.1888 16.2857H25.9198ZM24.5176 18C24.5308 18.0003 24.5441 18.0003 24.5573 18H37.7143C38.661 18 39.4286 18.7675 39.4286 19.7143V25.7143H36C33.633 25.7143 31.7143 27.6331 31.7143 30C31.7143 32.3669 33.633 34.2857 36 34.2857H39.4286V40.2857C39.4286 41.2325 38.661 42 37.7143 42H29.1981C29.7114 40.9672 30 39.803 30 38.5714C30 34.3109 26.5462 30.8571 22.2857 30.8571C18.0252 30.8571 14.5714 34.3109 14.5714 38.5714C14.5714 39.803 14.86 40.9672 15.3733 42H6.85713C5.91036 42 5.14284 41.2325 5.14284 40.2857V19.7143C5.14284 18.7675 5.91036 18 6.85713 18H19.4587L19.4738 18.0001L19.4898 18H24.5176ZM24 7.59121L18.9802 16.2857H15.4286V3.42857H22.2857C23.2325 3.42857 24 4.19608 24 5.14286V7.59121ZM13.7143 3.42857H12V16.2857H13.7143V3.42857ZM10.2857 3.42857V16.2857H8.57141V5.14286C8.57141 4.19608 9.33893 3.42857 10.2857 3.42857ZM41.1428 32.5714C42.0896 32.5714 42.8571 31.8039 42.8571 30.8571V29.1429C42.8571 28.1961 42.0896 27.4286 41.1428 27.4286H36C34.5798 27.4286 33.4286 28.5798 33.4286 30C33.4286 31.4202 34.5798 32.5714 36 32.5714H41.1428ZM22.2857 32.5714C18.972 32.5714 16.2857 35.2577 16.2857 38.5714C16.2857 41.8851 18.972 44.5714 22.2857 44.5714C25.5994 44.5714 28.2857 41.8851 28.2857 38.5714C28.2857 35.2577 25.5994 32.5714 22.2857 32.5714Z" fill="#1E66D2"/>
</svg>
