<svg width="48" height="48" viewBox="0 0 48 48" fill="none" xmlns="http://www.w3.org/2000/svg">
<path d="M26.5714 24.8572C26.5714 22.0168 28.874 19.7143 31.7143 19.7143C34.5546 19.7143 36.8571 22.0168 36.8571 24.8572C36.8571 27.6975 34.5546 30 31.7143 30C28.874 30 26.5714 27.6975 26.5714 24.8572Z" fill="#6AD9E8"/>
<path d="M13.7143 31.7143C13.7143 30.7675 14.4818 30 15.4286 30H24.8571C25.3305 30 25.7143 29.6162 25.7143 29.1429C25.7143 28.6695 25.3305 28.2857 24.8571 28.2857H15.4286C13.535 28.2857 12 29.8207 12 31.7143C12 33.6078 13.535 35.1429 15.4286 35.1429H32.7551C34.5472 35.1429 36 33.6901 36 31.898V31.7143C36 31.2409 35.6162 30.8571 35.1429 30.8571C34.6695 30.8571 34.2857 31.2409 34.2857 31.7143V31.898C34.2857 32.7433 33.6004 33.4286 32.7551 33.4286H15.4286C14.4818 33.4286 13.7143 32.6611 13.7143 31.7143Z" fill="#1E66D2"/>
<path fill-rule="evenodd" clip-rule="evenodd" d="M20.5714 16.2857C20.5714 14.3922 22.1065 12.8571 24 12.8571C25.8935 12.8571 27.4286 14.3922 27.4286 16.2857C27.4286 18.1793 25.8935 19.7143 24 19.7143C22.1065 19.7143 20.5714 18.1793 20.5714 16.2857ZM24 14.5714C23.0532 14.5714 22.2857 15.3389 22.2857 16.2857C22.2857 17.2325 23.0532 18 24 18C24.9468 18 25.7143 17.2325 25.7143 16.2857C25.7143 15.3389 24.9468 14.5714 24 14.5714Z" fill="#1E66D2"/>
<path fill-rule="evenodd" clip-rule="evenodd" d="M31.7143 18.8571C28.4006 18.8571 25.7143 21.5434 25.7143 24.8571C25.7143 28.1709 28.4006 30.8571 31.7143 30.8571C35.028 30.8571 37.7143 28.1709 37.7143 24.8571C37.7143 21.5434 35.028 18.8571 31.7143 18.8571ZM27.4286 24.8571C27.4286 22.4902 29.3473 20.5714 31.7143 20.5714C32.6275 20.5714 33.474 20.857 34.1693 21.3438L31.5811 25.2261L30.6061 24.2511C30.2714 23.9164 29.7286 23.9164 29.3939 24.2511C29.0592 24.5859 29.0592 25.1286 29.3939 25.4633L31.1082 27.1776C31.2898 27.3592 31.5432 27.4498 31.7987 27.4245C32.0543 27.3992 32.285 27.2606 32.4275 27.047L35.3745 22.6265C35.7713 23.2763 36 24.04 36 24.8571C36 27.2241 34.0812 29.1429 31.7143 29.1429C29.3473 29.1429 27.4286 27.2241 27.4286 24.8571Z" fill="#1E66D2"/>
<path d="M16.2857 32.5714C16.7591 32.5714 17.1429 32.1877 17.1429 31.7143C17.1429 31.2409 16.7591 30.8571 16.2857 30.8571C15.8123 30.8571 15.4286 31.2409 15.4286 31.7143C15.4286 32.1877 15.8123 32.5714 16.2857 32.5714Z" fill="#1E66D2"/>
<path d="M19.7143 31.7143C19.7143 32.1877 19.3305 32.5714 18.8571 32.5714C18.3838 32.5714 18 32.1877 18 31.7143C18 31.2409 18.3838 30.8571 18.8571 30.8571C19.3305 30.8571 19.7143 31.2409 19.7143 31.7143Z" fill="#1E66D2"/>
<path d="M21.4286 32.5714C21.902 32.5714 22.2857 32.1877 22.2857 31.7143C22.2857 31.2409 21.902 30.8571 21.4286 30.8571C20.9552 30.8571 20.5714 31.2409 20.5714 31.7143C20.5714 32.1877 20.9552 32.5714 21.4286 32.5714Z" fill="#1E66D2"/>
<path d="M24.8571 31.7143C24.8571 32.1877 24.4734 32.5714 24 32.5714C23.5266 32.5714 23.1429 32.1877 23.1429 31.7143C23.1429 31.2409 23.5266 30.8571 24 30.8571C24.4734 30.8571 24.8571 31.2409 24.8571 31.7143Z" fill="#1E66D2"/>
<path fill-rule="evenodd" clip-rule="evenodd" d="M18 7.71429C18 4.40058 20.6863 1.71429 24 1.71429C27.3137 1.71429 30 4.40058 30 7.71429V9.42857C31.5976 9.42857 32.9399 10.5212 33.3206 12H41.1429C43.0364 12 44.5714 13.535 44.5714 15.4286V40.2857C45.5182 40.2857 46.2857 41.0532 46.2857 42V42.8571C46.2857 44.7507 44.7507 46.2857 42.8571 46.2857H5.14286C3.24931 46.2857 1.71429 44.7507 1.71429 42.8571V42C1.71429 41.0532 2.4818 40.2857 3.42857 40.2857V15.4286C3.42857 13.535 4.9636 12 6.85714 12H14.6794C15.0601 10.5212 16.4024 9.42857 18 9.42857V7.71429ZM28.2857 7.71429V9.42857H19.7143V7.71429C19.7143 5.34735 21.6331 3.42857 24 3.42857C26.3669 3.42857 28.2857 5.34735 28.2857 7.71429ZM18 11.1429H30C30.9468 11.1429 31.7143 11.9104 31.7143 12.8571V17.1429C31.7143 17.6162 32.098 18 32.5714 18C33.0448 18 33.4286 17.6162 33.4286 17.1429H39.4286V36.8571H8.57143V17.1429H14.5714V18.8571C14.5714 22.6442 17.6415 25.7143 21.4286 25.7143H24C24.4734 25.7143 24.8571 25.3305 24.8571 24.8571C24.8571 24.3838 24.4734 24 24 24H21.4286C18.5882 24 16.2857 21.6975 16.2857 18.8571V12.8571C16.2857 11.9104 17.0532 11.1429 18 11.1429ZM6.85714 13.7143H14.5714V15.4286H8.57143C7.62465 15.4286 6.85714 16.1961 6.85714 17.1429V36.8571C6.85714 37.8039 7.62466 38.5714 8.57143 38.5714H39.4286C40.3753 38.5714 41.1429 37.8039 41.1429 36.8571V17.1429C41.1429 16.1961 40.3753 15.4286 39.4286 15.4286H33.4286V13.7143H41.1429C42.0896 13.7143 42.8571 14.4818 42.8571 15.4286V40.2857H31.2122C30.7575 40.2857 30.3215 40.4663 30 40.7878L28.7878 42H19.2122L18 40.7878C17.6785 40.4663 17.2425 40.2857 16.7878 40.2857H5.14286V15.4286C5.14286 14.4818 5.91037 13.7143 6.85714 13.7143ZM31.2122 42H44.5714V42.8571C44.5714 43.8039 43.8039 44.5714 42.8571 44.5714H5.14286C4.19608 44.5714 3.42857 43.8039 3.42857 42.8571V42H16.7878L18 43.2122C18.3215 43.5337 18.7575 43.7143 19.2122 43.7143H28.7878C29.2425 43.7143 29.6785 43.5337 30 43.2122L31.2122 42Z" fill="#1E66D2"/>
</svg>
