<svg width="48" height="48" viewBox="0 0 48 48" fill="none" xmlns="http://www.w3.org/2000/svg">
<path d="M41.1429 27.4286C41.1429 29.3221 39.6078 30.8571 37.7143 30.8571C35.8207 30.8571 34.2857 29.3221 34.2857 27.4286C34.2857 25.535 35.8207 24 37.7143 24C39.6078 24 41.1429 25.535 41.1429 27.4286Z" fill="#6AD9E8"/>
<path fill-rule="evenodd" clip-rule="evenodd" d="M15.4286 23.1428C14.0084 23.1428 12.8571 24.2941 12.8571 25.7143V29.1428C12.8571 30.563 14.0084 31.7143 15.4286 31.7143H18.8571C20.2773 31.7143 21.4286 30.563 21.4286 29.1428V25.7143C21.4286 24.2941 20.2773 23.1428 18.8571 23.1428H15.4286ZM18.8571 26.5714H19.7143V25.7143C19.7143 25.2409 19.3305 24.8571 18.8571 24.8571H15.4286C14.9552 24.8571 14.5714 25.2409 14.5714 25.7143V26.5714H15.4286C15.902 26.5714 16.2857 26.9552 16.2857 27.4286C16.2857 27.9019 15.902 28.2857 15.4286 28.2857H14.5714V29.1428C14.5714 29.6162 14.9552 30 15.4286 30H18.8571C19.3305 30 19.7143 29.6162 19.7143 29.1428V28.2857H18.8571C18.3838 28.2857 18 27.9019 18 27.4286C18 26.9552 18.3838 26.5714 18.8571 26.5714Z" fill="#1E66D2"/>
<path d="M13.7143 34.2857C13.2409 34.2857 12.8571 34.6695 12.8571 35.1428C12.8571 35.6162 13.2409 36 13.7143 36H26.5714C27.0448 36 27.4286 35.6162 27.4286 35.1428C27.4286 34.6695 27.0448 34.2857 26.5714 34.2857H13.7143Z" fill="#1E66D2"/>
<path d="M12.8571 38.5714C12.8571 38.098 13.2409 37.7143 13.7143 37.7143H19.7143C20.1877 37.7143 20.5714 38.098 20.5714 38.5714C20.5714 39.0448 20.1877 39.4286 19.7143 39.4286H13.7143C13.2409 39.4286 12.8571 39.0448 12.8571 38.5714Z" fill="#1E66D2"/>
<path d="M23.1429 37.7143C22.6695 37.7143 22.2857 38.098 22.2857 38.5714C22.2857 39.0448 22.6695 39.4286 23.1429 39.4286H42C42.4734 39.4286 42.8571 39.0448 42.8571 38.5714C42.8571 38.098 42.4734 37.7143 42 37.7143H23.1429Z" fill="#1E66D2"/>
<path fill-rule="evenodd" clip-rule="evenodd" d="M37.7143 23.1428C36.7494 23.1428 35.8591 23.4617 35.1428 23.9997C34.4268 23.4622 33.5361 23.1428 32.5714 23.1428C30.2045 23.1428 28.2857 25.0616 28.2857 27.4286C28.2857 29.7955 30.2045 31.7143 32.5714 31.7143C33.5361 31.7143 34.4268 31.3949 35.1428 30.8574C35.8591 31.3954 36.7494 31.7143 37.7143 31.7143C40.0812 31.7143 42 29.7955 42 27.4286C42 25.0616 40.0812 23.1428 37.7143 23.1428ZM35.1429 27.4286C35.1429 26.0084 36.2941 24.8571 37.7143 24.8571C39.1344 24.8571 40.2857 26.0084 40.2857 27.4286C40.2857 28.8487 39.1344 30 37.7143 30C36.2941 30 35.1429 28.8487 35.1429 27.4286ZM32.5714 24.8571C33.1 24.8571 33.5909 25.0161 33.9996 25.2897C33.6364 25.9192 33.4286 26.6496 33.4286 27.4286C33.4286 28.2075 33.6364 28.9379 33.9996 29.5674C33.5909 29.841 33.1 30 32.5714 30C31.1513 30 30 28.8487 30 27.4286C30 26.0084 31.1513 24.8571 32.5714 24.8571Z" fill="#1E66D2"/>
<path fill-rule="evenodd" clip-rule="evenodd" d="M1.83806 17.9188C1.34798 16.0898 2.4334 14.2098 4.26243 13.7197L33.2402 5.95514C35.0692 5.46505 36.9492 6.55048 37.4393 8.37951L40.2468 18.8571H42.8571C44.7507 18.8571 46.2857 20.3921 46.2857 22.2857V39.4286C46.2857 41.3221 44.7507 42.8571 42.8571 42.8571H12.8571C10.9636 42.8571 9.42858 41.3221 9.42858 39.4286V37.016C7.97644 36.9494 6.67126 35.9566 6.27496 34.4776L3.39177 23.7174L3.39098 23.7144L3.3902 23.7115L1.83806 17.9188ZM3.93762 19.131L4.82501 22.4428L9.61818 21.1585C10.0844 19.8187 11.3585 18.8571 12.8571 18.8571H18.2069L37.1145 13.7909L36.2271 10.4791L3.93762 19.131ZM35.7835 8.8232L3.49393 17.4751C3.24889 16.5606 3.7916 15.6206 4.70612 15.3756L33.6839 7.61101C34.5984 7.36597 35.5384 7.90868 35.7835 8.8232ZM37.5582 15.4467L24.8304 18.8571H38.472L37.5582 15.4467ZM5.2687 24.0987L7.93083 34.0339C8.12176 34.7464 8.73461 35.2333 9.42858 35.2976V22.984L5.2687 24.0987ZM11.1429 22.2857C11.1429 21.3389 11.9104 20.5714 12.8571 20.5714H42.8571C43.8039 20.5714 44.5714 21.3389 44.5714 22.2857V39.4286C44.5714 40.3753 43.8039 41.1428 42.8571 41.1428H12.8571C11.9104 41.1428 11.1429 40.3753 11.1429 39.4286V22.2857Z" fill="#1E66D2"/>
</svg>
