<svg width="16" height="17" viewBox="0 0 16 17" fill="none" xmlns="http://www.w3.org/2000/svg">
<path fill-rule="evenodd" clip-rule="evenodd" d="M13.8333 2.33333H13V1.08333C13 0.853212 12.8135 0.666664 12.5833 0.666664H11.75C11.5199 0.666664 11.3333 0.853212 11.3333 1.08333V2.33333H4.66667V1.08333C4.66667 0.853212 4.48012 0.666664 4.25 0.666664H3.41667C3.18655 0.666664 3 0.853212 3 1.08333V2.33333H2.16667C1.24619 2.33333 0.5 3.07952 0.5 4V14.8333C0.5 15.7538 1.24619 16.5 2.16667 16.5H13.8333C14.7538 16.5 15.5 15.7538 15.5 14.8333V4C15.5 3.07952 14.7538 2.33333 13.8333 2.33333ZM13.8333 14.8333H2.16667V5.66666H13.8333V14.8333ZM8.41667 9H7.58333C7.35322 9 7.16667 8.81345 7.16667 8.58333V7.75C7.16667 7.51988 7.35322 7.33333 7.58333 7.33333H8.41667C8.64679 7.33333 8.83333 7.51988 8.83333 7.75V8.58333C8.83333 8.81345 8.64679 9 8.41667 9ZM11.75 9C11.9801 9 12.1667 8.81345 12.1667 8.58333V7.75C12.1667 7.51988 11.9801 7.33333 11.75 7.33333H10.9167C10.6865 7.33333 10.5 7.51988 10.5 7.75V8.58333C10.5 8.81345 10.6865 9 10.9167 9H11.75ZM5.08333 9H4.25C4.01988 9 3.83333 8.81345 3.83333 8.58333V7.75C3.83333 7.51988 4.01988 7.33333 4.25 7.33333H5.08333C5.31345 7.33333 5.5 7.51988 5.5 7.75V8.58333C5.5 8.81345 5.31345 9 5.08333 9ZM7.58333 12.3333H8.41667C8.64679 12.3333 8.83333 12.1468 8.83333 11.9167V11.0833C8.83333 10.8532 8.64679 10.6667 8.41667 10.6667H7.58333C7.35322 10.6667 7.16667 10.8532 7.16667 11.0833V11.9167C7.16667 12.1468 7.35322 12.3333 7.58333 12.3333ZM5.5 11.9167C5.5 12.1468 5.31345 12.3333 5.08333 12.3333H4.25C4.01988 12.3333 3.83333 12.1468 3.83333 11.9167V11.0833C3.83333 10.8532 4.01988 10.6667 4.25 10.6667H5.08333C5.31345 10.6667 5.5 10.8532 5.5 11.0833V11.9167Z" fill="#1E66D2"/>
</svg>
