<svg width="120" height="120" viewBox="0 0 120 120" fill="none" xmlns="http://www.w3.org/2000/svg">
<circle cx="60" cy="60" r="60" fill="#FBEFEF"/>
<path d="M63 42C63 40.3431 61.6569 39 60 39C58.3431 39 57 40.3431 57 42L57.9356 70.0666C57.9715 71.1447 58.8558 72 59.9344 72H60.0656C61.1442 72 62.0285 71.1447 62.0644 70.0666L63 42Z" fill="#D2241E"/>
<path d="M60 81C61.6569 81 63 79.6569 63 78C63 76.3431 61.6569 75 60 75C58.3431 75 57 76.3431 57 78C57 79.6569 58.3431 81 60 81Z" fill="#D2241E"/>
</svg>
