<svg width="7" height="10" viewBox="0 0 7 10" fill="none" xmlns="http://www.w3.org/2000/svg">
<path d="M6.15046 4.39999C6.26771 4.51709 6.33365 4.67595 6.3338 4.84166V5.15832C6.33188 5.32367 6.2662 5.48189 6.15046 5.59999L1.86713 9.87499C1.78889 9.95387 1.68239 9.99824 1.5713 9.99824C1.4602 9.99824 1.3537 9.95387 1.27546 9.87499L0.683796 9.28332C0.605409 9.20652 0.561237 9.1014 0.561237 8.99166C0.561237 8.88191 0.605409 8.77679 0.683796 8.69999L4.39213 4.99999L0.683796 1.29999C0.604916 1.22175 0.560547 1.11525 0.560547 1.00416C0.560547 0.893057 0.604916 0.786558 0.683796 0.708322L1.27546 0.124989C1.3537 0.0461085 1.4602 0.0017395 1.5713 0.0017395C1.68239 0.0017395 1.78889 0.0461085 1.86713 0.124989L6.15046 4.39999Z" fill="#B2B6BB"/>
</svg>
