<svg width="48" height="48" viewBox="0 0 48 48" fill="none" xmlns="http://www.w3.org/2000/svg">
<path fill-rule="evenodd" clip-rule="evenodd" d="M24 42C33.9411 42 42 33.9411 42 24C42 14.0589 33.9411 6 24 6C14.0589 6 6 14.0589 6 24C6 33.9411 14.0589 42 24 42ZM24 48C37.2548 48 48 37.2548 48 24C48 10.7452 37.2548 0 24 0C10.7452 0 0 10.7452 0 24C0 37.2548 10.7452 48 24 48Z" fill="#EFF4FB"/>
<path d="M24 45C12.402 45 3 35.598 3 24C3 12.402 12.402 3 24 3C29.3785 3 34.2847 5.02198 38 8.34725" stroke="url(#paint0_angular)" stroke-width="6" stroke-linecap="round"/>
<defs>
<radialGradient id="paint0_angular" cx="0" cy="0" r="1" gradientUnits="userSpaceOnUse" gradientTransform="translate(24 24) scale(21)">
<stop offset="0.225734" stop-color="#1E66D2" stop-opacity="0.15"/>
<stop offset="0.889939" stop-color="#1E66D2"/>
</radialGradient>
</defs>
</svg>
