<svg width="48" height="48" viewBox="0 0 48 48" fill="none" xmlns="http://www.w3.org/2000/svg">
<rect width="48" height="48" rx="24" fill="white"/>
<path d="M27.78 23.2801C27.9207 23.4206 27.9999 23.6113 28 23.8101V24.1901C27.9977 24.3885 27.9189 24.5784 27.78 24.7201L22.64 29.8501C22.5462 29.9448 22.4184 29.998 22.285 29.998C22.1517 29.998 22.0239 29.9448 21.93 29.8501L21.22 29.1401C21.126 29.0479 21.073 28.9218 21.073 28.7901C21.073 28.6584 21.126 28.5323 21.22 28.4401L25.67 24.0001L21.22 19.5601C21.1254 19.4662 21.0721 19.3384 21.0721 19.2051C21.0721 19.0718 21.1254 18.944 21.22 18.8501L21.93 18.1501C22.0239 18.0554 22.1517 18.0022 22.285 18.0022C22.4184 18.0022 22.5462 18.0554 22.64 18.1501L27.78 23.2801Z" fill="#888C91"/>
</svg>
