<svg width="36" height="36" viewBox="0 0 36 36" fill="none" xmlns="http://www.w3.org/2000/svg">
<rect width="36" height="36" rx="18" fill="#1E66D2"/>
<path d="M20.5208 17.52C20.6146 17.6137 20.6673 17.7407 20.6674 17.8733V18.1266C20.6659 18.2589 20.6133 18.3855 20.5208 18.48L17.0941 21.9C17.0315 21.9631 16.9463 21.9986 16.8574 21.9986C16.7685 21.9986 16.6833 21.9631 16.6208 21.9L16.1474 21.4266C16.0847 21.3652 16.0494 21.2811 16.0494 21.1933C16.0494 21.1055 16.0847 21.0214 16.1474 20.96L19.1141 18L16.1474 15.04C16.0843 14.9774 16.0488 14.8922 16.0488 14.8033C16.0488 14.7144 16.0843 14.6292 16.1474 14.5666L16.6208 14.1C16.6833 14.0369 16.7685 14.0014 16.8574 14.0014C16.9463 14.0014 17.0315 14.0369 17.0941 14.1L20.5208 17.52Z" fill="white"/>
</svg>
