<svg width="32" height="32" viewBox="0 0 32 32" fill="none" xmlns="http://www.w3.org/2000/svg">
<path d="M24.1315 4.1038C22.8396 2.6313 20.5043 2 17.5168 2H8.84604C8.55045 2.00001 8.26456 2.10547 8.03977 2.29741C7.81498 2.48935 7.66603 2.75519 7.6197 3.04713L4.00937 25.9447C3.93761 26.3963 4.28724 26.8051 4.74488 26.8051H10.0979L11.4423 18.278L11.4005 18.545C11.4963 17.9423 12.0118 17.4977 12.6222 17.4977H15.166C20.1631 17.4977 24.076 15.468 25.219 9.59644C25.2529 9.42278 25.2823 9.25376 25.3077 9.08864C25.1635 9.01224 25.1635 9.01224 25.3077 9.08864C25.6481 6.91845 25.3054 5.44122 24.1315 4.1038Z" fill="#27346A"/>
<path d="M13.4905 8.30686C13.6369 8.23718 13.7969 8.20107 13.959 8.20116H20.7567C21.5617 8.20116 22.3125 8.25355 22.9986 8.36397C23.1905 8.39458 23.3815 8.43113 23.5713 8.47356C23.8402 8.5329 24.106 8.60552 24.3677 8.69116C24.705 8.80381 25.0191 8.93501 25.3078 9.08864C25.6481 6.91762 25.3054 5.44122 24.1315 4.1038C22.8389 2.6313 20.5043 2 17.5168 2H8.8453C8.23477 2 7.71538 2.44448 7.6197 3.04713L4.00937 25.9439C3.93761 26.3962 4.28724 26.8045 4.74414 26.8045H10.0979L12.887 9.11719C12.9145 8.94334 12.9837 8.77875 13.0888 8.6376C13.194 8.49644 13.3318 8.38294 13.4905 8.30686Z" fill="#27346A"/>
<path d="M25.2177 9.59618C24.0747 15.4669 20.162 17.4975 15.1647 17.4975H12.6202C12.0098 17.4975 11.4942 17.942 11.3994 18.5448L9.72688 29.1472C9.66439 29.5424 9.96998 29.9004 10.3698 29.9004H14.8822C15.1407 29.9004 15.3907 29.8081 15.5872 29.6402C15.7837 29.4723 15.9139 29.2397 15.9543 28.9844L15.9982 28.7545L16.8487 23.3644L16.9035 23.0665C16.9439 22.8112 17.074 22.5787 17.2705 22.4108C17.467 22.2429 17.717 22.1506 17.9755 22.1505H18.6508C23.0221 22.1505 26.4448 20.3746 27.445 15.2386C27.8625 13.0922 27.6465 11.3002 26.5421 10.0415C26.2071 9.66025 25.7911 9.34539 25.3065 9.08838C25.2802 9.25434 25.2518 9.42252 25.2177 9.59618Z" fill="#2790C3"/>
<path d="M24.1126 8.61181C23.9344 8.55977 23.7545 8.51369 23.5732 8.47366C23.3833 8.43193 23.1924 8.39563 23.0005 8.36482C22.3136 8.25365 21.5634 8.20117 20.7577 8.20117H13.9608C13.7986 8.20081 13.6384 8.23723 13.4923 8.3077C13.3334 8.38355 13.1954 8.49698 13.0903 8.63818C12.9851 8.77938 12.9159 8.94408 12.8888 9.11803L11.4441 18.2781L11.4023 18.5451C11.4974 17.9424 12.0129 17.4978 12.6234 17.4978H15.1679C20.165 17.4978 24.0778 15.4681 25.2208 9.59654C25.2548 9.42288 25.2834 9.2546 25.3096 9.08874C25.0202 8.93594 24.7069 8.80392 24.3695 8.69201C24.2844 8.66379 24.1987 8.63705 24.1127 8.61181" fill="#1F264F"/>
</svg>
