<svg width="32" height="10" viewBox="0 0 32 10" fill="none" xmlns="http://www.w3.org/2000/svg">
<path d="M23.26 0.494987C22.5153 0.225771 21.7289 0.0900249 20.937 0.0939869C18.38 0.0939869 16.573 1.38599 16.562 3.23499C16.541 4.59399 17.843 5.35999 18.827 5.81799C19.838 6.28699 20.176 6.57899 20.171 6.99499C20.166 7.63599 19.363 7.92199 18.624 7.92199C17.597 7.92199 17.04 7.78199 16.181 7.42199L15.862 7.27099L15.498 9.40699C16.123 9.66199 17.243 9.88599 18.399 9.90699C21.123 9.90699 22.899 8.62599 22.919 6.65099C22.94 5.56799 22.243 4.74599 20.758 4.06799C19.862 3.63099 19.301 3.33299 19.301 2.88499C19.301 2.48899 19.78 2.07299 20.78 2.07299C21.4436 2.05636 22.1034 2.17864 22.717 2.43199L22.962 2.54099L23.321 0.483987L23.26 0.494987ZM29.907 0.270987H27.907C27.282 0.270987 26.818 0.437987 26.542 1.05799L22.698 9.77099H25.417L25.965 8.34399L29.282 8.34899C29.365 8.68199 29.599 9.76999 29.599 9.76999H32L29.907 0.270987ZM12.88 0.192987H15.469L13.849 9.69699H11.26L12.88 0.187987V0.192987ZM6.297 5.42699L6.562 6.74999L9.098 0.270987H11.843L7.759 9.75499H5.026L2.786 1.72399C2.76884 1.65728 2.73826 1.59476 2.69614 1.54026C2.65402 1.48576 2.60123 1.44041 2.541 1.40699C1.73638 0.988495 0.882829 0.671729 0 0.463987L0.031 0.264987H4.208C4.771 0.285987 5.229 0.463987 5.385 1.06799L6.297 5.43199V5.42699ZM26.703 6.40099L27.74 3.73999C27.724 3.76499 27.953 3.19299 28.083 2.83299L28.26 3.64999L28.86 6.39499H26.703V6.40099Z" fill="#1A1F71"/>
</svg>
