<svg width="1160" height="278" viewBox="0 0 1160 278" fill="none" xmlns="http://www.w3.org/2000/svg">
<path d="M453.179 0C431.796 15.6764 404.641 31.0022 371.664 42.4724C325.665 58.4721 300.343 69.2051 281.026 81.9797C261.996 94.5639 248.772 109.142 227.332 132.776L226.37 133.836C203.544 158.997 176.602 163.908 150.309 157.87C124.051 151.84 98.445 134.899 78.1628 116.369C49.1542 89.8676 16.6406 79.6145 0 77.0777V76.0665C16.7859 78.5939 49.5885 88.9099 78.8372 115.631C99.055 134.102 124.51 150.92 150.532 156.895C176.519 162.863 203.077 158.023 225.63 133.164L226.648 132.042C248.038 108.462 261.339 93.7996 280.474 81.1456C299.907 68.2951 325.335 57.5281 371.336 41.5278C403.655 30.2862 430.353 15.3347 451.482 0H453.179Z" fill="white" fill-opacity="0.14"/>
<path d="M620.394 0C599.767 18.8653 567.889 41.1324 526.85 54.0229C470.315 71.7806 448.109 86.6779 420.633 105.11C410.165 112.132 398.932 119.668 384.745 128.07C359.048 143.288 339.469 149.4 321.234 154.77C320.36 155.028 319.489 155.283 318.62 155.538L318.519 155.568C301.295 160.625 285.043 165.396 265.741 177.072C249.075 187.154 236.201 199.101 224.464 209.992C221.902 212.369 219.395 214.696 216.914 216.942C203.045 229.499 190.017 239.528 172.928 242.005C155.834 244.483 135.826 237.792 117.52 229.42C108.379 225.24 99.688 220.652 92.0225 216.605L91.9326 216.557C84.3166 212.536 77.6964 209.04 72.6857 207.036C56.7665 200.668 30.1158 192.725 0 188.722V189.731C29.9696 193.727 56.4855 201.633 72.3143 207.964C77.2738 209.948 83.8544 213.423 91.5088 217.464L91.5107 217.465L91.5165 217.468L91.5187 217.469L91.5556 217.489C99.2182 221.535 107.933 226.135 117.105 230.33C135.424 238.708 155.666 245.517 173.072 242.995C190.483 240.471 203.705 230.25 217.586 217.683C220.077 215.427 222.591 213.095 225.155 210.716L225.168 210.704C236.902 199.816 249.689 187.952 266.259 177.928C285.447 166.32 301.589 161.581 318.818 156.523L321.516 155.73C339.781 150.35 359.452 144.211 385.255 128.93C399.508 120.489 410.769 112.934 421.248 105.904C448.685 87.498 470.76 72.6892 527.15 54.9769C568.875 41.8711 601.172 19.1125 621.871 0H620.394Z" fill="white" fill-opacity="0.14"/>
<path d="M704.806 0C683.244 31.5823 665.447 46.681 643.782 57.1751C631.818 62.9701 618.663 67.3668 603.005 72.3518C600.998 72.9907 598.95 73.6392 596.859 74.3015L596.819 74.314C582.61 78.8139 566.39 83.9503 547.326 91.0314C503.532 107.298 481.209 122.832 467.64 136.903C460.857 143.937 456.274 150.593 452.299 156.76C451.585 157.867 450.892 158.957 450.21 160.029C447.084 164.943 444.188 169.496 440.62 173.675C438.489 176.172 435.221 178.551 431.006 180.832C426.796 183.11 421.67 185.276 415.847 187.357C404.202 191.52 389.818 195.327 374.508 199.014C366.727 200.888 358.705 202.731 350.686 204.573C327.18 209.973 303.693 215.369 286.333 221.529C264.346 229.331 247.928 243.476 232.432 256.827L232.399 256.856C231.446 257.677 230.496 258.495 229.549 259.308C221.519 266.204 213.667 272.758 205.323 278H207.182C215.116 272.857 222.603 266.592 230.201 260.067C231.102 259.293 232.004 258.516 232.909 257.736L233.058 257.608C248.577 244.239 264.863 230.208 286.667 222.471C303.968 216.332 327.367 210.957 350.855 205.561C358.887 203.715 366.929 201.868 374.742 199.986C390.057 196.298 404.485 192.48 416.184 188.299C422.034 186.208 427.212 184.023 431.482 181.711C435.748 179.403 439.136 176.954 441.38 174.325C444.998 170.087 447.939 165.463 451.066 160.546C451.745 159.478 452.433 158.397 453.139 157.302C457.101 151.157 461.643 144.563 468.36 137.597C481.791 123.668 503.968 108.202 547.674 91.9688C566.714 84.8969 582.91 79.7679 597.119 75.268L597.12 75.2675L597.163 75.254C599.254 74.592 601.301 73.9436 603.308 73.3047C618.962 68.3209 632.182 63.9051 644.218 58.0751C666.211 47.4223 684.213 32.0672 706.016 0H704.806Z" fill="white" fill-opacity="0.14"/>
<path d="M831.067 0C834.071 9.66626 836.458 20.6301 837.378 31.8419C839.04 52.0864 835.916 73.0592 823.113 88.6831C793.748 124.518 749.442 133.708 698.914 142.507C654.367 150.266 627.753 162.667 610.9 179.206C594.043 195.747 587.018 216.366 581.513 240.388C577.595 257.485 569.149 269.591 558.503 278H560.096C570.446 269.498 578.634 257.428 582.487 240.612C587.982 216.633 594.957 196.252 611.6 179.919C628.247 163.583 654.633 151.234 699.086 143.493C749.558 134.702 794.252 125.482 823.887 89.3169C836.921 73.4102 840.047 52.1329 838.375 31.7601C837.458 20.5859 835.095 9.65971 832.114 0H831.067Z" fill="white" fill-opacity="0.14"/>
<path d="M946.797 0C939.19 21.8608 929.948 52.0622 927.004 74.4347C926.05 81.6897 926.111 90.6168 926.178 100.43L926.178 100.451V100.494C926.199 103.568 926.22 106.728 926.211 109.952C926.172 123.521 925.594 138.255 922.201 152.509C918.81 166.757 912.611 180.513 901.336 192.136C890.063 203.759 873.684 213.282 849.883 219.014C822.976 225.494 800.562 228.454 781.313 230.466C776.251 230.995 771.404 231.459 766.75 231.904C753.72 233.151 742.198 234.253 731.69 236.24C717.407 238.939 704.949 243.278 693.017 251.852C684.396 258.048 676.065 266.443 667.521 278H668.767C677.108 266.815 685.229 258.681 693.601 252.664C705.381 244.2 717.689 239.904 731.876 237.222C742.336 235.245 753.791 234.149 766.804 232.904C771.466 232.457 776.329 231.992 781.417 231.46C800.691 229.446 823.152 226.48 850.117 219.986C874.066 214.218 890.625 204.616 902.054 192.832C913.483 181.05 919.752 167.117 923.174 152.741C926.594 138.37 927.172 123.541 927.211 109.955C927.22 106.688 927.199 103.496 927.178 100.401V100.364C927.111 90.5713 927.051 81.7449 927.996 74.5652C930.942 52.1717 940.24 21.8493 947.856 0H946.797Z" fill="white" fill-opacity="0.14"/>
<path d="M1107.73 0C1096.55 19.7078 1079.18 32.4951 1061.57 45.4632L1061.57 45.4669L1061.56 45.4677C1057.85 48.1992 1054.13 50.9389 1050.46 53.7529C1037.68 63.5388 1025.45 74.2186 1016.23 88.5861C1007.01 102.962 1000.8 121.001 1000 145.484C998 206.479 992.375 240.018 982.918 261.423C980.046 267.921 976.821 273.304 973.23 278H974.483C977.933 273.392 981.049 268.126 983.832 261.827C993.375 240.231 999 206.521 1001 145.516C1001.8 121.199 1007.95 103.338 1017.08 89.1263C1026.2 74.9063 1038.31 64.311 1051.07 54.547C1054.72 51.752 1058.42 49.0246 1062.13 46.2991C1079.88 33.2309 1097.58 20.2083 1108.88 0H1107.73Z" fill="white" fill-opacity="0.14"/>
<path d="M1160 85.2274C1144.32 100.672 1123.61 131.784 1121 177.472C1120.19 191.683 1119.66 203.542 1119.22 213.687C1117.82 245.305 1117.16 260.282 1110.8 278H1111.86C1118.16 260.259 1118.83 245.128 1120.22 213.649C1120.67 203.515 1121.19 191.685 1122 177.529C1124.56 132.78 1144.58 102.145 1160 86.6377V85.2274Z" fill="white" fill-opacity="0.14"/>
<path d="M128.432 278H130.617C124.805 275.046 119.058 271.733 113.447 268.323C108.663 265.415 103.983 262.438 99.4506 259.555L99.4455 259.552L98.4548 258.922C93.6148 255.844 88.9464 252.887 84.5129 250.258C75.6639 245.009 67.6824 241.022 61.0761 240.006C50.5894 238.393 35.2696 239.907 20.4286 242.432C13.3334 243.64 6.33283 245.081 0 246.53V247.556C6.37408 246.094 13.4374 244.636 20.5964 243.418C35.4305 240.894 50.6106 239.408 60.924 240.994C67.3176 241.978 75.1486 245.866 84.0028 251.118C88.4209 253.738 93.0767 256.687 97.9183 259.766L98.9101 260.397C103.443 263.28 108.133 266.262 112.928 269.177C117.992 272.256 123.179 275.262 128.432 278Z" fill="white" fill-opacity="0.14"/>
<path d="M19.4922 1.89174C30.056 15.5079 52.6639 32.9795 85.5822 27.4931C104.112 24.4048 124.413 13.109 142.519 0H140.808C123.034 12.7288 103.34 23.5197 85.4178 26.5067C53.1689 31.8815 30.962 14.9016 20.4845 1.54049C20.1511 1.65192 19.8203 1.76904 19.4922 1.89174Z" fill="white" fill-opacity="0.14"/>
</svg>
