<svg width="48" height="48" viewBox="0 0 48 48" fill="none" xmlns="http://www.w3.org/2000/svg">
<path d="M34.7143 18.8571C34.0042 18.8571 33.4286 19.4328 33.4286 20.1429V29.8197L31.1845 27.5756C30.6824 27.0735 29.8684 27.0735 29.3663 27.5756C28.8642 28.0777 28.8642 28.8918 29.3663 29.3939L31.5561 32.7362C32.1897 33.7031 33.2679 34.2857 34.4239 34.2857H41.1428C42.563 34.2857 43.7143 33.1344 43.7143 31.7143V25.2857C43.7143 24.5756 43.1386 24 42.4286 24C41.7185 24 41.1428 24.5756 41.1428 25.2857C41.1428 24.5756 40.5672 24 39.8571 24C39.147 24 38.5714 24.5756 38.5714 25.2857C38.5714 24.5756 37.9958 24 37.2857 24C36.5756 24 36 24.5756 36 25.2857V20.1429C36 19.4328 35.4243 18.8571 34.7143 18.8571Z" fill="#6AD9E8"/>
<path d="M28.2857 42.8571C28.2857 42.3838 28.6695 42 29.1428 42H32.5714C33.0448 42 33.4286 42.3838 33.4286 42.8571C33.4286 43.3305 33.0448 43.7143 32.5714 43.7143H29.1428C28.6695 43.7143 28.2857 43.3305 28.2857 42.8571Z" fill="#1E66D2"/>
<path fill-rule="evenodd" clip-rule="evenodd" d="M6.85713 18.8571C6.85713 18.3838 7.24089 18 7.71427 18H13.7143C14.1877 18 14.5714 18.3838 14.5714 18.8571V25.7143C14.5714 26.1877 14.1877 26.5714 13.7143 26.5714H7.71427C7.24089 26.5714 6.85713 26.1877 6.85713 25.7143V18.8571ZM8.57141 19.7143V24.8571H12.8571V19.7143H8.57141Z" fill="#1E66D2"/>
<path d="M17.1428 18C16.6695 18 16.2857 18.3838 16.2857 18.8571C16.2857 19.3305 16.6695 19.7143 17.1428 19.7143H22.2857C22.7591 19.7143 23.1428 19.3305 23.1428 18.8571C23.1428 18.3838 22.7591 18 22.2857 18H17.1428Z" fill="#1E66D2"/>
<path d="M16.2857 22.2857C16.2857 21.8123 16.6695 21.4286 17.1428 21.4286H22.2857C22.7591 21.4286 23.1428 21.8123 23.1428 22.2857C23.1428 22.7591 22.7591 23.1429 22.2857 23.1429H17.1428C16.6695 23.1429 16.2857 22.7591 16.2857 22.2857Z" fill="#1E66D2"/>
<path d="M17.1428 24.8571C16.6695 24.8571 16.2857 25.2409 16.2857 25.7143C16.2857 26.1877 16.6695 26.5714 17.1428 26.5714H20.5714C21.0448 26.5714 21.4286 26.1877 21.4286 25.7143C21.4286 25.2409 21.0448 24.8571 20.5714 24.8571H17.1428Z" fill="#1E66D2"/>
<path d="M8.57141 12C8.57141 12.4734 8.18766 12.8571 7.71427 12.8571C7.24089 12.8571 6.85713 12.4734 6.85713 12C6.85713 11.5266 7.24089 11.1429 7.71427 11.1429C8.18766 11.1429 8.57141 11.5266 8.57141 12Z" fill="#1E66D2"/>
<path d="M10.2857 12.8571C10.7591 12.8571 11.1428 12.4734 11.1428 12C11.1428 11.5266 10.7591 11.1429 10.2857 11.1429C9.81231 11.1429 9.42856 11.5266 9.42856 12C9.42856 12.4734 9.81231 12.8571 10.2857 12.8571Z" fill="#1E66D2"/>
<path d="M13.7143 12C13.7143 12.4734 13.3305 12.8571 12.8571 12.8571C12.3837 12.8571 12 12.4734 12 12C12 11.5266 12.3837 11.1429 12.8571 11.1429C13.3305 11.1429 13.7143 11.5266 13.7143 12Z" fill="#1E66D2"/>
<path fill-rule="evenodd" clip-rule="evenodd" d="M25.0965 3.42857H22.2857C21.3389 3.42857 20.5714 4.19608 20.5714 5.14286V8.57143H23.1428C25.0364 8.57143 26.5714 10.1065 26.5714 12V27.4286C26.5714 29.3221 25.0364 30.8571 23.1428 30.8571H20.5714V39.4286H41.1428V37.2857C41.1428 36.8123 41.5266 36.4286 42 36.4286C42.4734 36.4286 42.8571 36.8123 42.8571 37.2857V42.8571C42.8571 44.7507 41.3221 46.2857 39.4286 46.2857H22.2857C20.3922 46.2857 18.8571 44.7507 18.8571 42.8571V30.8571H6.85713C4.96358 30.8571 3.42856 29.3221 3.42856 27.4286V12C3.42856 10.1065 4.96358 8.57143 6.85713 8.57143H18.8571V5.14286C18.8571 3.24931 20.3922 1.71429 22.2857 1.71429H25.6944C25.7078 1.71397 25.7211 1.71397 25.7344 1.71429H35.1227C35.136 1.71397 35.1494 1.71397 35.1627 1.71429H39.4286C41.3221 1.71429 42.8571 3.24931 42.8571 5.14286V21.2143C42.8571 21.6877 42.4734 22.0714 42 22.0714C41.5266 22.0714 41.1428 21.6877 41.1428 21.2143V5.14286C41.1428 4.19608 40.3753 3.42857 39.4286 3.42857H35.7606L35.2942 4.82782C35.0609 5.52783 34.4058 6 33.6679 6H27.1892C26.4513 6 25.7962 5.52783 25.5629 4.82782L25.0965 3.42857ZM26.9035 3.42857L27.1892 4.28571L33.6679 4.28571L33.9536 3.42857H26.9035ZM20.5714 42.8571V41.1429H41.1428V42.8571C41.1428 43.8039 40.3753 44.5714 39.4286 44.5714H22.2857C21.3389 44.5714 20.5714 43.8039 20.5714 42.8571ZM5.14284 15.4286V27.4286C5.14284 28.3753 5.91036 29.1429 6.85713 29.1429H23.1428C24.0896 29.1429 24.8571 28.3753 24.8571 27.4286V15.4286H5.14284ZM24.8571 13.7143H5.14284V12C5.14284 11.0532 5.91036 10.2857 6.85713 10.2857H23.1428C24.0896 10.2857 24.8571 11.0532 24.8571 12V13.7143Z" fill="#1E66D2"/>
<path fill-rule="evenodd" clip-rule="evenodd" d="M36.8571 20.1429V23.1857C36.9956 23.1576 37.1389 23.1429 37.2857 23.1429C37.7681 23.1429 38.2132 23.3023 38.5714 23.5713C38.9295 23.3023 39.3747 23.1429 39.8571 23.1429C40.3395 23.1429 40.7847 23.3023 41.1428 23.5713C41.501 23.3023 41.9461 23.1429 42.4285 23.1429C43.612 23.1429 44.5714 24.1022 44.5714 25.2857V31.7143C44.5714 33.6078 43.0364 35.1429 41.1428 35.1429H34.4239C32.9789 35.1429 31.6311 34.4146 30.8392 33.2059L28.6916 29.9283C27.924 29.0874 27.9468 27.7829 28.7601 26.9695C29.597 26.1327 30.9538 26.1327 31.7906 26.9695L32.5714 27.7503V20.1429C32.5714 18.9594 33.5308 18 34.7142 18C35.8977 18 36.8571 18.9594 36.8571 20.1429ZM35.1428 20.1429C35.1428 19.9062 34.9509 19.7143 34.7142 19.7143C34.4775 19.7143 34.2857 19.9062 34.2857 20.1429V29.8197C34.2857 30.1663 34.0768 30.4789 33.7565 30.6116C33.4363 30.7442 33.0676 30.6709 32.8224 30.4257L30.5784 28.1817C30.4111 28.0144 30.1397 28.0144 29.9723 28.1817C29.805 28.3491 29.805 28.6205 29.9723 28.7878C30.0139 28.8293 30.051 28.875 30.0832 28.9242L32.2731 32.2664C32.7482 32.9916 33.5569 33.4286 34.4239 33.4286H41.1428C42.0896 33.4286 42.8571 32.6611 42.8571 31.7143V25.2857C42.8571 25.049 42.6652 24.8571 42.4285 24.8571C42.1918 24.8571 42 25.049 42 25.2857V26.5714C42 27.0448 41.6162 27.4286 41.1428 27.4286C40.6694 27.4286 40.2857 27.0448 40.2857 26.5714V25.2857C40.2857 25.049 40.0938 24.8571 39.8571 24.8571C39.6204 24.8571 39.4285 25.049 39.4285 25.2857V26.5714C39.4285 27.0448 39.0448 27.4286 38.5714 27.4286C38.098 27.4286 37.7142 27.0448 37.7142 26.5714V25.2857C37.7142 25.049 37.5224 24.8571 37.2857 24.8571C37.049 24.8571 36.8571 25.049 36.8571 25.2857V26.5714C36.8571 27.0448 36.4733 27.4286 36 27.4286C35.5266 27.4286 35.1428 27.0448 35.1428 26.5714V20.1429Z" fill="#1E66D2"/>
<path fill-rule="evenodd" clip-rule="evenodd" d="M30.8571 12C29.437 12 28.2857 13.1513 28.2857 14.5714C28.2857 15.9916 29.437 17.1429 30.8571 17.1429H36.8571C38.2773 17.1429 39.4286 15.9916 39.4286 14.5714C39.4286 13.1513 38.2773 12 36.8571 12H30.8571ZM30 14.5714C30 14.098 30.3837 13.7143 30.8571 13.7143H36.8571C37.3305 13.7143 37.7143 14.098 37.7143 14.5714C37.7143 15.0448 37.3305 15.4286 36.8571 15.4286H30.8571C30.3837 15.4286 30 15.0448 30 14.5714Z" fill="#1E66D2"/>
</svg>
