<svg width="48" height="48" viewBox="0 0 48 48" fill="none" xmlns="http://www.w3.org/2000/svg">
<path d="M29.5714 25.7143C28.8614 25.7143 28.2857 26.2899 28.2857 27V36.6768L26.0417 34.4328C25.5396 33.9307 24.7255 33.9307 24.2234 34.4328C23.7213 34.9349 23.7213 35.749 24.2234 36.2511L26.4133 39.5933C27.0469 40.5603 28.1251 41.1429 29.2811 41.1429H36C37.4202 41.1429 38.5714 39.9916 38.5714 38.5714V32.1429C38.5714 31.4328 37.9958 30.8572 37.2857 30.8572C36.5757 30.8572 36 31.4328 36 32.1429C36 31.4328 35.4244 30.8572 34.7143 30.8572C34.0042 30.8572 33.4286 31.4328 33.4286 32.1429C33.4286 31.4328 32.853 30.8572 32.1429 30.8572C31.4328 30.8572 30.8572 31.4328 30.8572 32.1429V27C30.8572 26.2899 30.2815 25.7143 29.5714 25.7143Z" fill="#6AD9E8"/>
<path d="M6.00001 5.14287C6.00001 3.24932 7.53503 1.71429 9.42858 1.71429H38.5714C40.465 1.71429 42 3.24932 42 5.14287V7.71429H42.8571C44.7507 7.71429 46.2857 9.24932 46.2857 11.1429V35.1429C46.2857 37.0364 44.7507 38.5714 42.8571 38.5714H42C41.5266 38.5714 41.1429 38.1877 41.1429 37.7143C41.1429 37.2409 41.5266 36.8571 42 36.8571H42.8571C43.8039 36.8571 44.5714 36.0896 44.5714 35.1429V34.2857H42C41.5266 34.2857 41.1429 33.902 41.1429 33.4286C41.1429 32.9552 41.5266 32.5714 42 32.5714H44.5714V11.1429C44.5714 10.1961 43.8039 9.42858 42.8571 9.42858H42V30C42 30.4734 41.6162 30.8571 41.1429 30.8571C40.6695 30.8571 40.2857 30.4734 40.2857 30V5.14287C40.2857 4.19609 39.5182 3.42858 38.5714 3.42858H9.42858C8.48181 3.42858 7.71429 4.19609 7.71429 5.14287V30C7.71429 30.4734 7.33054 30.8571 6.85715 30.8571C6.38376 30.8571 6.00001 30.4734 6.00001 30V9.42858H5.14287C4.19609 9.42858 3.42858 10.1961 3.42858 11.1429V32.5714H21.4286C21.902 32.5714 22.2857 32.9552 22.2857 33.4286C22.2857 33.902 21.902 34.2857 21.4286 34.2857H3.42858V35.1429C3.42858 36.0896 4.19609 36.8571 5.14287 36.8571H20.5714C21.0448 36.8571 21.4286 37.2409 21.4286 37.7143C21.4286 38.1877 21.0448 38.5714 20.5714 38.5714H20.4019L19.0685 44.5714H31.7143C32.1877 44.5714 32.5714 44.9552 32.5714 45.4286C32.5714 45.902 32.1877 46.2857 31.7143 46.2857H16.2857C15.8123 46.2857 15.4286 45.902 15.4286 45.4286C15.4286 44.9552 15.8123 44.5714 16.2857 44.5714H17.3124L18.6458 38.5714H5.14287C3.24932 38.5714 1.71429 37.0364 1.71429 35.1429V11.1429C1.71429 9.24932 3.24932 7.71429 5.14287 7.71429H6.00001V5.14287Z" fill="#1E66D2"/>
<path d="M15.4286 25.7143C14.9552 25.7143 14.5714 26.098 14.5714 26.5714C14.5714 27.0448 14.9552 27.4286 15.4286 27.4286H25.7143C26.1877 27.4286 26.5714 27.0448 26.5714 26.5714C26.5714 26.098 26.1877 25.7143 25.7143 25.7143H15.4286Z" fill="#1E66D2"/>
<path d="M10.2857 6.00001C10.7591 6.00001 11.1429 5.61625 11.1429 5.14287C11.1429 4.66948 10.7591 4.28572 10.2857 4.28572C9.81234 4.28572 9.42858 4.66948 9.42858 5.14287C9.42858 5.61625 9.81234 6.00001 10.2857 6.00001Z" fill="#1E66D2"/>
<path d="M12.8572 6.00001C13.3305 6.00001 13.7143 5.61625 13.7143 5.14287C13.7143 4.66948 13.3305 4.28572 12.8572 4.28572C12.3838 4.28572 12 4.66948 12 5.14287C12 5.61625 12.3838 6.00001 12.8572 6.00001Z" fill="#1E66D2"/>
<path d="M15.4286 6.00001C15.902 6.00001 16.2857 5.61625 16.2857 5.14287C16.2857 4.66948 15.902 4.28572 15.4286 4.28572C14.9552 4.28572 14.5714 4.66948 14.5714 5.14287C14.5714 5.61625 14.9552 6.00001 15.4286 6.00001Z" fill="#1E66D2"/>
<path d="M13.7143 22.2857C12.2941 22.2857 11.1429 23.437 11.1429 24.8572V28.2857C11.1429 29.7059 12.2941 30.8571 13.7143 30.8571H25.7143C26.1877 30.8571 26.5714 30.4734 26.5714 30C26.5714 29.5266 26.1877 29.1429 25.7143 29.1429H13.7143C13.2409 29.1429 12.8572 28.7591 12.8572 28.2857V24.8572C12.8572 24.3838 13.2409 24 13.7143 24H34.2857C34.7591 24 35.1429 24.3838 35.1429 24.8572V28.2857C35.1429 28.7591 35.5266 29.1429 36 29.1429C36.4734 29.1429 36.8571 28.7591 36.8571 28.2857V24.8572C36.8571 23.437 35.7059 22.2857 34.2857 22.2857H13.7143Z" fill="#1E66D2"/>
<path fill-rule="evenodd" clip-rule="evenodd" d="M17.1429 13.7143C17.1429 9.9272 20.2129 6.85715 24 6.85715C27.7871 6.85715 30.8571 9.9272 30.8571 13.7143C30.8571 17.5014 27.7871 20.5714 24 20.5714C20.2129 20.5714 17.1429 17.5014 17.1429 13.7143ZM21 12.4286C21 10.7717 22.3432 9.42858 24 9.42858C25.6569 9.42858 27 10.7717 27 12.4286C27 13.1295 26.7597 13.7742 26.3569 14.2849C27.2331 14.7375 27.9623 15.4346 28.4547 16.286C28.8924 15.5295 29.1429 14.6511 29.1429 13.7143C29.1429 10.874 26.8403 8.57144 24 8.57144C21.1597 8.57144 18.8572 10.874 18.8572 13.7143C18.8572 14.6511 19.1076 15.5295 19.5453 16.286C20.0377 15.4346 20.7669 14.7375 21.6431 14.2849C21.2404 13.7742 21 13.1295 21 12.4286ZM25.2857 12.4286C25.2857 13.1387 24.7101 13.7143 24 13.7143C23.2899 13.7143 22.7143 13.1387 22.7143 12.4286C22.7143 11.7185 23.2899 11.1429 24 11.1429C24.7101 11.1429 25.2857 11.7185 25.2857 12.4286ZM24 15.4286C25.492 15.4286 26.7628 16.3823 27.2335 17.7137C26.3501 18.4288 25.2251 18.8572 24 18.8572C22.7749 18.8572 21.6499 18.4288 20.7665 17.7137C21.2372 16.3823 22.508 15.4286 24 15.4286Z" fill="#1E66D2"/>
<path fill-rule="evenodd" clip-rule="evenodd" d="M31.7143 27V30.0429C31.8528 30.0148 31.9961 30 32.1429 30C32.6253 30 33.0704 30.1594 33.4286 30.4284C33.7867 30.1594 34.2319 30 34.7143 30C35.1967 30 35.6419 30.1594 36 30.4284C36.3581 30.1594 36.8033 30 37.2857 30C38.4692 30 39.4286 30.9594 39.4286 32.1429V38.5714C39.4286 40.465 37.8936 42 36 42H29.2811C27.8361 42 26.4883 41.2718 25.6963 40.0631L23.5488 36.7855C22.7812 35.9445 22.804 34.64 23.6173 33.8267C24.4542 32.9899 25.811 32.9899 26.6478 33.8267L27.4286 34.6075V27C27.4286 25.8165 28.388 24.8572 29.5714 24.8572C30.7549 24.8572 31.7143 25.8165 31.7143 27ZM30 27C30 26.7633 29.8081 26.5714 29.5714 26.5714C29.3347 26.5714 29.1429 26.7633 29.1429 27V36.6768C29.1429 37.0235 28.934 37.336 28.6137 37.4687C28.2934 37.6014 27.9248 37.528 27.6796 37.2829L25.4356 35.0389C25.2682 34.8715 24.9969 34.8715 24.8295 35.0389C24.6622 35.2062 24.6622 35.4776 24.8295 35.645C24.871 35.6865 24.9082 35.7322 24.9404 35.7813L27.1303 39.1236C27.6054 39.8488 28.4141 40.2857 29.2811 40.2857H36C36.9468 40.2857 37.7143 39.5182 37.7143 38.5714V32.1429C37.7143 31.9062 37.5224 31.7143 37.2857 31.7143C37.049 31.7143 36.8571 31.9062 36.8571 32.1429V33.4286C36.8571 33.902 36.4734 34.2857 36 34.2857C35.5266 34.2857 35.1429 33.902 35.1429 33.4286V32.1429C35.1429 31.9062 34.951 31.7143 34.7143 31.7143C34.4776 31.7143 34.2857 31.9062 34.2857 32.1429V33.4286C34.2857 33.902 33.902 34.2857 33.4286 34.2857C32.9552 34.2857 32.5714 33.902 32.5714 33.4286V32.1429C32.5714 31.9062 32.3796 31.7143 32.1429 31.7143C31.9062 31.7143 31.7143 31.9062 31.7143 32.1429V33.4286C31.7143 33.902 31.3305 34.2857 30.8571 34.2857C30.3838 34.2857 30 33.902 30 33.4286V27Z" fill="#1E66D2"/>
</svg>
