<svg width="48" height="48" viewBox="0 0 48 48" fill="none" xmlns="http://www.w3.org/2000/svg">
<path fill-rule="evenodd" clip-rule="evenodd" d="M28.3075 28.1478C28.3725 29.7116 28.6255 33.4613 29.5901 35.7143C30.9585 38.9108 34.9544 42.2335 36.3606 43.3349C36.6546 43.5652 37.0596 43.5652 37.3537 43.3349C38.7599 42.2335 42.7558 38.9108 44.1242 35.7143C45.0887 33.4613 45.3418 29.7116 45.4068 28.1478C45.4241 27.7314 45.1303 27.3724 44.7233 27.2831C43.8125 27.0831 42.217 26.6905 41.1429 26.1905C39.8446 25.586 38.273 24.3426 37.4405 23.6453C37.1044 23.3638 36.6099 23.3638 36.2738 23.6453C35.4413 24.3426 33.8697 25.586 32.5714 26.1905C31.4973 26.6905 29.9018 27.0831 28.991 27.2831C28.584 27.3724 28.2902 27.7314 28.3075 28.1478ZM34.2857 31.7143C33.8123 31.7143 33.4286 32.098 33.4286 32.5714V34.2857C33.4286 35.7059 34.5798 36.8571 36 36.8571H37.7143C39.1344 36.8571 40.2857 35.7059 40.2857 34.2857V32.5714C40.2857 32.098 39.902 31.7143 39.4286 31.7143H34.2857Z" fill="#6AD9E8"/>
<path d="M14.5714 6.85716C14.5714 6.38377 14.9552 6.00002 15.4286 6.00002H37.7143C38.1877 6.00002 38.5714 6.38377 38.5714 6.85716C38.5714 7.33055 38.1877 7.7143 37.7143 7.7143H15.4286C14.9552 7.7143 14.5714 7.33055 14.5714 6.85716Z" fill="#1E66D2"/>
<path d="M6.00001 7.7143C6.4734 7.7143 6.85715 7.33055 6.85715 6.85716C6.85715 6.38377 6.4734 6.00002 6.00001 6.00002C5.52662 6.00002 5.14287 6.38377 5.14287 6.85716C5.14287 7.33055 5.52662 7.7143 6.00001 7.7143Z" fill="#1E66D2"/>
<path d="M9.42858 6.85716C9.42858 7.33055 9.04482 7.7143 8.57144 7.7143C8.09805 7.7143 7.71429 7.33055 7.71429 6.85716C7.71429 6.38377 8.09805 6.00002 8.57144 6.00002C9.04482 6.00002 9.42858 6.38377 9.42858 6.85716Z" fill="#1E66D2"/>
<path d="M11.1429 7.7143C11.6163 7.7143 12 7.33055 12 6.85716C12 6.38377 11.6163 6.00002 11.1429 6.00002C10.6695 6.00002 10.2857 6.38377 10.2857 6.85716C10.2857 7.33055 10.6695 7.7143 11.1429 7.7143Z" fill="#1E66D2"/>
<path fill-rule="evenodd" clip-rule="evenodd" d="M5.14287 3.42859C3.24932 3.42859 1.71429 4.96361 1.71429 6.85716V36.8572C1.71429 38.7507 3.24932 40.2857 5.14287 40.2857H27.4286C27.902 40.2857 28.2857 39.902 28.2857 39.4286C28.2857 38.9552 27.902 38.5714 27.4286 38.5714H5.14287C4.19609 38.5714 3.42858 37.8039 3.42858 36.8572V10.2857H40.2857V22.2857C40.2857 22.7591 40.6695 23.1429 41.1429 23.1429C41.6163 23.1429 42 22.7591 42 22.2857V6.85716C42 4.96361 40.465 3.42859 38.5714 3.42859H5.14287ZM40.2857 6.85716C40.2857 5.91039 39.5182 5.14287 38.5714 5.14287H5.14287C4.19609 5.14287 3.42858 5.91039 3.42858 6.85716V8.57145H40.2857V6.85716Z" fill="#1E66D2"/>
<path d="M7.71429 16.2857C7.71429 15.8123 8.09805 15.4286 8.57144 15.4286H11.1429C11.6163 15.4286 12 15.0448 12 14.5714C12 14.0981 11.6163 13.7143 11.1429 13.7143H8.57144C7.15128 13.7143 6.00001 14.8656 6.00001 16.2857V20.5714C6.00001 21.9916 7.15128 23.1429 8.57144 23.1429H12.8572C14.2773 23.1429 15.4286 21.9916 15.4286 20.5714V19.2857C15.4286 18.8123 15.0448 18.4286 14.5714 18.4286C14.0981 18.4286 13.7143 18.8123 13.7143 19.2857V20.5714C13.7143 21.0448 13.3305 21.4286 12.8572 21.4286H8.57144C8.09805 21.4286 7.71429 21.0448 7.71429 20.5714V16.2857Z" fill="#1E66D2"/>
<path d="M8.57144 27.4286C8.09805 27.4286 7.71429 27.8123 7.71429 28.2857V32.5714C7.71429 33.0448 8.09805 33.4286 8.57144 33.4286H12.8572C13.3305 33.4286 13.7143 33.0448 13.7143 32.5714V31.2857C13.7143 30.8123 14.0981 30.4286 14.5714 30.4286C15.0448 30.4286 15.4286 30.8123 15.4286 31.2857V32.5714C15.4286 33.9916 14.2773 35.1429 12.8572 35.1429H8.57144C7.15128 35.1429 6.00001 33.9916 6.00001 32.5714V28.2857C6.00001 26.8656 7.15128 25.7143 8.57144 25.7143H11.1429C11.6163 25.7143 12 26.0981 12 26.5714C12 27.0448 11.6163 27.4286 11.1429 27.4286H8.57144Z" fill="#1E66D2"/>
<path d="M15.2846 15.0469C15.5472 14.653 15.4408 14.1209 15.0469 13.8583C14.653 13.5957 14.1208 13.7021 13.8583 14.096L11.0096 18.3689L10.0347 17.3939C9.69994 17.0592 9.15722 17.0592 8.82249 17.3939C8.48775 17.7287 8.48775 18.2714 8.82249 18.6061L10.5368 20.3204C10.7184 20.502 10.9718 20.5926 11.2273 20.5673C11.4829 20.542 11.7136 20.4034 11.8561 20.1898L15.2846 15.0469Z" fill="#1E66D2"/>
<path d="M15.0469 25.8582C15.4408 26.1208 15.5472 26.653 15.2846 27.0469L11.8561 32.1897C11.7136 32.4034 11.4829 32.542 11.2273 32.5673C10.9718 32.5926 10.7184 32.502 10.5368 32.3204L8.82249 30.6061C8.48775 30.2714 8.48775 29.7286 8.82249 29.3939C9.15722 29.0592 9.69994 29.0592 10.0347 29.3939L11.0096 30.3689L13.8583 26.096C14.1208 25.7021 14.653 25.5957 15.0469 25.8582Z" fill="#1E66D2"/>
<path d="M18 16.2857C17.5266 16.2857 17.1429 16.6695 17.1429 17.1429C17.1429 17.6163 17.5266 18 18 18H29.1429C29.6163 18 30 17.6163 30 17.1429C30 16.6695 29.6163 16.2857 29.1429 16.2857H18Z" fill="#1E66D2"/>
<path d="M17.1429 29.1429C17.1429 28.6695 17.5266 28.2857 18 28.2857H24C24.4734 28.2857 24.8572 28.6695 24.8572 29.1429C24.8572 29.6163 24.4734 30 24 30H18C17.5266 30 17.1429 29.6163 17.1429 29.1429Z" fill="#1E66D2"/>
<path d="M18 18.8572C17.5266 18.8572 17.1429 19.2409 17.1429 19.7143C17.1429 20.1877 17.5266 20.5714 18 20.5714H27.4286C27.902 20.5714 28.2857 20.1877 28.2857 19.7143C28.2857 19.2409 27.902 18.8572 27.4286 18.8572H18Z" fill="#1E66D2"/>
<path d="M17.1429 31.7143C17.1429 31.2409 17.5266 30.8572 18 30.8572H24C24.4734 30.8572 24.8572 31.2409 24.8572 31.7143C24.8572 32.1877 24.4734 32.5714 24 32.5714H18C17.5266 32.5714 17.1429 32.1877 17.1429 31.7143Z" fill="#1E66D2"/>
<path fill-rule="evenodd" clip-rule="evenodd" d="M36.8572 28.2857C35.437 28.2857 34.2857 29.437 34.2857 30.8572C33.339 30.8572 32.5714 31.6247 32.5714 32.5714V34.2857C32.5714 36.1793 34.1065 37.7143 36 37.7143H37.7143C39.6078 37.7143 41.1429 36.1793 41.1429 34.2857V32.5714C41.1429 31.6247 40.3754 30.8572 39.4286 30.8572C39.4286 29.437 38.2773 28.2857 36.8572 28.2857ZM36 36C35.0532 36 34.2857 35.2325 34.2857 34.2857V32.5714H39.4286V34.2857C39.4286 35.2325 38.6611 36 37.7143 36H36ZM36.8572 30C36.3838 30 36 30.3838 36 30.8572H37.7143C37.7143 30.3838 37.3305 30 36.8572 30Z" fill="#1E66D2"/>
<path fill-rule="evenodd" clip-rule="evenodd" d="M35.7233 22.9883C36.3779 22.4399 37.3364 22.4399 37.991 22.9883C38.8265 23.6882 40.3205 24.8621 41.5046 25.4134C42.4836 25.8692 43.9944 26.2455 44.9071 26.4459C45.695 26.6189 46.2988 27.326 46.2632 28.1834C46.2301 28.9802 46.149 30.3374 45.9522 31.7879C45.7574 33.2231 45.441 34.8164 44.9122 36.0516C44.1638 37.7998 42.7313 39.5217 41.3641 40.9114C39.9829 42.3153 38.6012 43.4465 37.8822 44.0097C37.2778 44.4831 36.4365 44.4831 35.8321 44.0097C35.1131 43.4465 33.7314 42.3153 32.3502 40.9114C30.983 39.5217 29.5505 37.7998 28.8021 36.0516C28.2733 34.8164 27.9569 33.2231 27.7621 31.7879C27.5653 30.3374 27.4842 28.9802 27.4511 28.1834C27.4155 27.326 28.0193 26.6189 28.8072 26.4459C29.7199 26.2455 31.2307 25.8692 32.2097 25.4134C33.3938 24.8621 34.8878 23.6882 35.7233 22.9883ZM36.8572 24.2913C36.8425 24.2913 36.8317 24.2961 36.8242 24.3024C35.9949 24.9971 34.3456 26.31 32.9332 26.9675C31.7639 27.5119 30.0838 27.9207 29.1748 28.1203C29.1727 28.1208 29.1708 28.1213 29.1692 28.1219C29.1673 28.1227 29.1644 28.1242 29.1644 28.1242C29.1966 28.8927 29.2747 30.1859 29.4608 31.5574C29.65 32.9512 29.9423 34.3592 30.378 35.377C30.9981 36.8253 32.2478 38.363 33.5722 39.7091C34.8625 41.0207 36.1616 42.0887 36.8572 42.635C37.5527 42.0887 38.8518 41.0207 40.1421 39.7091C41.4665 38.363 42.7162 36.8253 43.3363 35.377C43.772 34.3592 44.0643 32.9512 44.2535 31.5574C44.4396 30.1859 44.5177 28.8927 44.5499 28.1242C44.5483 28.1232 44.5462 28.1223 44.5436 28.1214L44.5395 28.1203C43.6305 27.9207 41.9504 27.5119 40.7811 26.9675C39.3687 26.31 37.7194 24.9971 36.8901 24.3024C36.8826 24.2961 36.8718 24.2913 36.8572 24.2913Z" fill="#1E66D2"/>
</svg>
